<svg width="75" height="31" viewBox="0 0 75 31" fill="none" xmlns="http://www.w3.org/2000/svg">
<path d="M0.425781 5.97656V0.898438H24.3125V5.97656H15.4453V30H9.3125V5.97656H0.425781ZM25.4969 30V0.898438H36.9422C40.2495 0.898438 42.8146 1.76432 44.6375 3.49609C46.4734 5.22786 47.3914 7.53255 47.3914 10.4102C47.3914 12.4023 46.9487 14.1081 46.0633 15.5273C45.1779 16.9336 43.9083 17.9883 42.2547 18.6914L48.4266 30H41.6297L36.1219 19.6875H31.6297V30H25.4969ZM31.6297 14.7461H35.7898C39.3055 14.7461 41.0633 13.3008 41.0633 10.4102C41.0633 8.96484 40.6271 7.85807 39.7547 7.08984C38.8823 6.32161 37.5542 5.9375 35.7703 5.9375H31.6297V14.7461ZM62.0133 30.3906C59.4221 30.3906 57.1044 29.8047 55.0602 28.6328C53.0159 27.4609 51.4013 25.7617 50.2164 23.5352C49.0445 21.3086 48.4586 18.6198 48.4586 15.4688C48.4586 12.2917 49.051 9.58984 50.2359 7.36328C51.4339 5.13672 53.0549 3.4375 55.0992 2.26562C57.1565 1.09375 59.4612 0.507812 62.0133 0.507812C64.2659 0.507812 66.2906 0.924479 68.0875 1.75781C69.8974 2.59115 71.3753 3.79557 72.5211 5.37109C73.6669 6.94661 74.3701 8.85417 74.6305 11.0938H68.4195C68.1852 9.49219 67.5016 8.23568 66.3688 7.32422C65.2359 6.39974 63.8297 5.9375 62.15 5.9375C59.9104 5.9375 58.107 6.77083 56.7398 8.4375C55.3727 10.0911 54.6891 12.4349 54.6891 15.4688C54.6891 18.5677 55.3727 20.9245 56.7398 22.5391C58.1201 24.1536 59.9169 24.9609 62.1305 24.9609C63.7581 24.9609 65.1383 24.5312 66.2711 23.6719C67.4169 22.8125 68.1331 21.6081 68.4195 20.0586H74.6305C74.4091 21.8424 73.7711 23.5221 72.7164 25.0977C71.6747 26.6732 70.249 27.9492 68.4391 28.9258C66.6422 29.9023 64.5003 30.3906 62.0133 30.3906Z" fill="black"/>
</svg>
