<?xml version="1.0" encoding="UTF-8"?>
<svg id="Capa_1" xmlns="http://www.w3.org/2000/svg" viewBox="0 0 823.16 431.61">
  <defs>
    <style>
      .cls-1 {
        fill: #ea0029;
      }

      .cls-1, .cls-2 {
        fill-rule: evenodd;
      }

      .cls-2 {
        fill: #fff;
      }
    </style>
  </defs>
  <path class="cls-2" d="M411.59,10.22C190.68,10.22,11.6,102.25,11.6,215.8s179.08,205.59,399.99,205.59,399.97-92.03,399.97-205.59S632.48,10.22,411.59,10.22Z"/>
  <g>
    <g>
      <path class="cls-1" d="M115.3,262.21c-.57,41.43-15.5,18.72-15.5,39.15,0,11.35,8.13,16.17,14.55,16.17,5.48,0,10.77-.29,16.06-.86,5.3-.29,10.77-.57,16.07-.57s10.39.28,16.25.57c5.85.56,12.66.86,20.79.86,47.82,0,68.41-49.66,68.41-102.44s-17.2-99.87-69.73-99.87h-61.61c-6.62,0-17.58,1.98-17.58,15.04,0,18.43,14.18,4.24,13.8,33.47l-1.51,98.47ZM162.16,161.75c0-10.78.57-15.61,8.5-15.61,14.55,0,31.19,10.49,31.19,76.91,0,28.37-4.16,64.96-27.98,64.96-10.2,0-11.72-5.96-11.72-20.42v-105.84Z"/>
      <path class="cls-1" d="M309.74,234.11c-2.08,0-6.81.86-6.81-3.97,0-3.4,3.22-14.46,3.97-17.59.76-3.12,3.97-20.14,8.51-20.14,4.15,0,7.37,10.49,9.07,15.03,1.51,3.99,6.99,18.74,6.99,23s-5.68,3.68-7.57,3.68h-14.17ZM272.33,252.55c-2.84,9.09-6.8,22.7-10.96,30.36-5.49,10.22-15.69,6.25-15.69,19.58,0,9.09,2.46,16.74,29.48,16.74,7.56,0,27.97-.28,27.97-17.3,0-14.75-12.09-7.38-12.09-18.45,0-13.89,5.85-14.46,15.68-14.46,30.43,0,35.16,1.13,35.16,13.9,0,9.93-11.53,4.82-11.53,18.45,0,17.59,16.25,17.87,43.28,17.87,9.44,0,36.28.86,36.28-19.85,0-16.17-10.2-3.12-16.44-24.69-6.81-23.26-35.34-110.09-38.55-118.32-7.38-18.72-17.77-43.98-34.21-43.98s-22.87,14.75-22.87,34.34c0,22.42-7.75,47.37-13.6,66.95l-11.9,38.88Z"/>
      <path class="cls-1" d="M471.26,126.57c-8.5-11.35-10.58-12.48-22.3-12.48-8.51,0-34.02-1.14-34.02,19,0,17.03,13.61,5.97,16.64,34.34,2.08,20.42,2.08,41.14,2.08,61.57,0,12.77-.38,30.64-1.71,42.83-1.89,18.17-12.85,12.22-12.85,27.25,0,18.45,19.47,20.14,28.16,20.14s28.35-1.69,28.35-20.71c0-13.9-10.02-7.1-12.85-25.26-1.14-7.37-1.33-17.88-1.33-25.82,0-5.96.19-24.39,6.06-24.39,3.97,0,8.88,6.8,11.52,10.49l58.39,78.58c2.84,3.7,6.06,7.1,9.84,7.1,12.66,0,11.52-38.87,11.52-51.63v-73.5c0-10.78,0-28.37,2.46-38.59,3.22-13.04,13.23-7.09,13.23-23.26,0-19.58-20.59-18.16-28.91-18.16s-27.22-.85-27.22,17.3c0,15.33,10.02,11.07,12.67,22.98,1.51,6.52,1.69,18.72,1.69,25.82,0,4.81-.19,16.45-4.91,16.45-3.4,0-9.45-8.22-11.71-11.06l-44.79-59.02Z"/>
      <path class="cls-1" d="M600.72,230.7c0,39.72-1.89,50.22-4.16,54.2-3.03,5.39-9.45,6.81-9.45,15.9,0,18.16,23.82,18.43,31.75,18.43,41.38,0,43.09-12.77,43.09-21.27s-4.54-10.22-9.26-14.48c-3.78-3.41-6.05-2.26-6.05-52.78v-28.08c0-19.87.19-45.4,3.78-51.65,4.35-7.38,11.53-6.81,11.53-17.03,0-19.29-23.24-19.85-34.59-19.85-3.78,0-42.33,0-42.33,20.42,0,10.8,7.36,11.64,11.72,19.87,2.08,3.97,3.97,12.2,3.97,48.24v28.08Z"/>
    </g>
    <path class="cls-1" d="M411.59,10.22C190.68,10.22,11.6,102.25,11.6,215.8s179.08,205.59,399.99,205.59,399.97-92.03,399.97-205.59S632.48,10.22,411.59,10.22ZM383.26,402.61c-200.78,0-361.15-89.18-361.15-186.8S182.48,31.61,383.26,31.61s355.69,83.38,355.69,188-154.94,183-355.69,183Z"/>
  </g>
</svg>