<svg xmlns="http://www.w3.org/2000/svg" xmlns:xlink="http://www.w3.org/1999/xlink" id="Layer_1" x="0px" y="0px" width="273.947px" height="90.79px" viewBox="0 0 273.947 90.79" xml:space="preserve"><g>	<path d="M192.214,86.095c-0.082,0-0.166,0-0.248-0.007c-4.39-0.125-6.292-3.574-7.971-6.621c-0.448-0.809-0.87-1.573-1.326-2.265  c-2.618-3.965-5.093-7.066-7.785-9.761c-0.583-0.682-1.195-1.296-1.845-1.851c-6.168-5.619-12.094-10.318-22.324-11.01l-0.096-0.01  l-0.088-0.041c-0.255-0.125-1.305-0.125-1.561,0l-0.112,0.055l-0.125-0.004c-1.804-0.08-3.438,0.321-4.889,0.674  c-0.595,0.144-1.153,0.28-1.682,0.373c-0.173,0.029-0.346-0.037-0.453-0.162c-0.064,0.031-0.136,0.051-0.213,0.053  c-3.572,0.027-7.249,0.012-10.804-0.002c-5.755-0.023-11.706-0.051-17.364,0.117c-5.314,1.344-11.443,0.146-14.761-2.79  c-1.869,8.45-7.472,13.052-16.665,13.681l-2.964,0.004c-9.909-0.843-15.174-5.189-16.107-13.279  c-3.437,1.891-7.378,2.941-11.18,2.973c-5.021,0.035-10.29-1.758-13.449-4.577c-0.136-0.142-0.256-0.278-0.382-0.42  c-0.171-0.199-0.488-0.56-0.713-0.751c-0.599,0.652-1.231,1.281-1.884,1.873c-4.915,4.535-15.648,4.836-21.959,2.076  c-6.378-2.79-9.092-8.389-9.079-18.724v-0.216l0.161-0.144c0.352-0.316,0.968-0.28,1.619-0.24c0.128,0.008,0.29,0.019,0.434,0.021  c-0.474-1.207-0.994-2.684-1.043-4.562V28.79c0.191-3.558,1.567-5.841,3.026-7.791l0.081-0.082c0.53-0.437,1.02-0.93,1.457-1.458  l0.039-0.042c3.367-3.228,10.358-4.699,17.004-3.571c4.615,0.782,8.136,2.715,9.798,5.352c3.404-3.311,7.566-5.215,12.382-5.661  c5.409-0.501,10.745,0.986,14.639,4.087c0.792,0.734,1.543,1.485,2.259,2.255c3.311-4.4,10.066-7.817,18.231-5.875  c18.086,0.192,37.205,0.192,55.289,0c1.327-0.302,2.699-0.602,4.28-0.587c0.523,0.007,1.027,0.112,1.514,0.21  c0.541,0.111,1.051,0.219,1.44,0.15c0.659-0.118,1-0.668,1.392-1.304c0.324-0.522,0.658-1.062,1.208-1.418  c0.958-0.865,1.882-1.79,2.746-2.749l0.049-0.048c0.327-0.276,0.653-0.552,0.98-0.83c3.236-2.752,6.582-5.599,11.91-6.422  L165.157,3l1.929,0.003c4.081,0.475,6.747,2.422,8.923,4.208l0.06,0.059c0.594,0.689,1.248,1.341,1.941,1.941l0.047,0.047  c1.387,1.583,2.603,3.363,3.778,5.085c0.406,0.593,0.81,1.185,1.223,1.771c1.656-0.024,3.368-0.007,5.028,0.007  c2.857,0.024,5.808,0.048,8.512-0.115c1.359-0.299,2.75-0.597,4.499-0.595V9.326h14.877V5.717l0.464-0.021  c3.444-0.17,7.138-0.146,10.711-0.117c2.192,0.011,4.461,0.028,6.643,0l0.494-0.01v13.848c2.512-2.248,6.891-3.71,11.708-3.874  c5.281-0.168,9.997,1.233,12.626,3.756c0.732,0.667,1.453,1.386,2.131,2.133c0.639,0.836,1.796,2.526,2.672,4.841  c0.819,2.162,1.586,4.61,1.065,6.401c-0.338,1.173-1.286,1.818-2.2,2.441c-0.398,0.274-0.78,0.533-1.106,0.831  c0.41,0.456,0.854,0.895,1.286,1.324c0.483,0.48,0.984,0.979,1.448,1.507l0.057,0.062l0.031,0.076  c1.104,2.726-0.343,5.933-1.373,8.118c3.093,0.593,4.905,2.506,5.386,5.697l0.006,0.074l-0.006,0.662  c-0.539,3.334-2.373,5.242-5.449,5.676L262.5,59.15l-1.375-0.01c-2.947-0.522-4.698-2.194-5.214-4.968  c-6.118,3.268-16.935,2.27-21.634-1.962c-0.016,0.415-0.003,0.868,0.008,1.31c0.015,0.514,0.031,1.046,0.002,1.537l-0.025,0.454  l-0.455,0.007c-1.909,0.027-3.895,0.012-5.812-0.002c-3.1-0.023-6.302-0.051-9.253,0.115c-5.461,0.895-10.758-0.07-13.494-2.461  l-0.06-0.062c-0.355-0.447-0.762-0.854-1.211-1.213l-0.076-0.074c-1.771-2.197-2.714-5.092-2.803-8.612  c-0.029-1.287-0.013-2.64,0.003-3.946c0.022-1.984,0.046-4.028-0.091-5.877c-0.271-0.038-0.631-0.024-0.959-0.01  c-0.183,0.007-0.369,0.015-0.554,0.015v22.127h-1.218c0.406,1.756,0.846,3.52,1.312,5.379c0.354,1.412,0.713,2.854,1.064,4.327  c0.13,0.536,0.266,1.089,0.407,1.647c0.708,2.843,1.514,6.061,1.48,9.128c-0.024,2.524-1.217,5.103-3.273,7.08  C197.265,85.007,194.709,86.095,192.214,86.095z"></path>	<g>		<circle fill-rule="evenodd" clip-rule="evenodd" fill="#FFFFFF" cx="261.921" cy="53.379" r="4.775"></circle>					<path fill-rule="evenodd" clip-rule="evenodd" fill="#FEFEFE" stroke="#FEFEFE" stroke-linecap="round" stroke-linejoin="round" stroke-miterlimit="10" d="   M164.655,44.054c-2.548-2.134-5.257-4.253-9.373-4.567c-4.779-0.365-7.139,1.521-9.956,3.63c-2.224,1.667-4.601,3.46-5.27,5.741   c2.576-0.771,5.066-1.416,8.198-1.406c6.149,0.019,10.892,2.778,15.348,5.39c4.557,2.673,8.877,5.439,12.767,8.083   c-2.762-5.597-6.052-10.664-9.956-15.114C165.875,45.177,165.289,44.592,164.655,44.054z"></path>		<g>			<path fill-rule="evenodd" clip-rule="evenodd" d="M261.749,50.069c4.331-0.485,4.606,6.461,0.11,6.256    C258.21,56.151,257.822,50.505,261.749,50.069z"></path>		</g>					<path fill-rule="evenodd" clip-rule="evenodd" fill="#FEFEFE" stroke="#FEFEFE" stroke-linecap="round" stroke-linejoin="round" stroke-miterlimit="10" d="   M228.738,17.546c-1.992,0-3.981,0-5.975,0c0-1.876,0-3.75,0-5.625c1.993,0,3.982,0,5.975,0   C228.738,13.797,228.738,15.67,228.738,17.546z"></path>					<path fill-rule="evenodd" clip-rule="evenodd" fill="#FEFEFE" stroke="#FEFEFE" stroke-linecap="round" stroke-linejoin="round" stroke-miterlimit="10" d="   M222.763,49.642c0-9.059,0-18.119,0-27.176c1.993,0,3.982,0,5.975,0c0,9.058,0,18.118,0,27.176   C226.746,49.642,224.756,49.642,222.763,49.642z"></path>					<path fill-rule="evenodd" clip-rule="evenodd" fill="#FEFEFE" stroke="#FEFEFE" stroke-linecap="round" stroke-linejoin="round" stroke-miterlimit="10" d="   M157.048,14.03c2.292-1.734,5.154-5.205,9.137-5.272c2.363-0.039,4.334,1.327,5.855,2.696c0.5,0.597,1.047,1.142,1.643,1.641   c6.465,7.705,10.25,18.095,13.82,28.698c-0.014,0.212,0.144,0.25,0.117,0.468c0.274-6.364,0.039-13.234,0.118-19.794   c1.951,0,3.903,0,5.855,0c0.121,0.939-0.259,4.204,0.235,3.749c0.201-0.425,0.508-0.744,0.82-1.056   c0.517-0.42,0.986-0.885,1.406-1.406c1.025-0.928,2.195-1.708,3.983-1.874c0.78,0,1.561,0,2.342,0   c0.244,0.07,0.771-0.146,0.82,0.118c0,1.874,0,3.747,0,5.623c-4.422-0.878-7.728,0.782-9.371,3.399   c-0.274,5.974-0.038,12.453-0.117,18.623c-1.172,0.076-2.655-0.156-3.631,0.117c2.228,7.105,4.236,15.113,6.092,22.957   c0.277,1.174,0.78,2.439,0.703,3.396c-0.152,1.836-2.703,4.763-5.038,4.101c-1.027-0.288-3.09-4.753-3.632-5.737   c-7.616-13.877-16.034-28.383-25.888-39.594c-0.458-0.595-1.02-1.089-1.641-1.524c-3.207-3.143-8.816-0.77-11.01,1.758   c-0.595,0.5-1.142,1.041-1.64,1.641c-1.77,2.021-3.49,4.206-5.388,6.674c-1.663,2.164-3.587,5.285-6.325,6.21   c-1.991,0-3.984,0-5.975,0c0-9.059,0-18.119,0-27.176c1.912,0.076,4.138-0.157,5.857,0.116c0.07,1.102-0.149,3.116,0.117,3.633   c0.35-0.43,0.692-0.869,1.055-1.289c0.438-0.343,0.827-0.731,1.171-1.173c1.111-0.877,2.271-1.709,4.1-1.874   c0.743,0,1.483,0,2.225,0c0.195,0,0.391,0,0.586,0c0.025,0.091,0.099,0.135,0.234,0.118c0.21,0.55,0.117,1.564,0.117,2.462   c0,0.853-0.193,2.11,0.234,2.223c2.301-3.245,4.779-6.312,7.499-9.135c0.478-0.383,0.909-0.811,1.287-1.291   c0.305-0.4,0.654-0.753,1.055-1.053C156.316,14.86,156.708,14.471,157.048,14.03z M136.547,41.91   c2.406-5.25,5.617-9.692,8.671-14.291c-2.77-0.628-5.461,0.137-7.03,1.406c-0.478,0.378-0.906,0.808-1.288,1.288   c-0.143,0.245-0.324,0.456-0.468,0.706c-0.211,1.477-0.116,3.411-0.116,5.385c0,1.989-0.429,4.239,0,5.624   C136.369,42.198,136.49,42.049,136.547,41.91z"></path>					<path fill-rule="evenodd" clip-rule="evenodd" fill="#FEFEFE" stroke="#FEFEFE" stroke-linecap="round" stroke-linejoin="round" stroke-miterlimit="10" d="   M213.861,41.91c-0.302,3.075,1.98,4.27,4.919,3.397c0,1.484,0,2.967,0,4.451c-5.977,1.312-11.833-0.281-11.01-6.911   c0-5.272,0-10.543,0-15.816c-0.938-0.271-2.382-0.038-3.514-0.118c0-1.482,0-2.967,0-4.449c1.171,0,2.344,0,3.514,0   c0.077-2.227-0.156-4.765,0.117-6.795c1.953,0,3.904,0,5.858,0c0.078,2.227-0.157,4.765,0.116,6.795c1.446,0,2.889,0,4.335,0   c0,1.481,0,2.966,0,4.449c-1.446,0-2.889,0-4.335,0C213.666,31.64,213.666,37.184,213.861,41.91z"></path>					<path fill-rule="evenodd" clip-rule="evenodd" fill="#FEFEFE" stroke="#FEFEFE" stroke-linecap="round" stroke-linejoin="round" stroke-miterlimit="10" d="   M16.131,42.028c-0.527,5.747,12.497,5.739,11.595-0.118c-0.336-2.183-3.68-2.797-6.091-3.395   c-4.113-1.021-8.786-2.144-10.308-5.625c-2.69-6.155,3.125-11.04,8.553-11.011c1.248,0,2.498,0,3.746,0   c5.322,0.341,8.98,2.344,9.255,7.729c-1.874,0-3.749,0-5.624,0c-0.624-1.127-0.614-2.283-1.992-3.042   c-3.093-1.71-9.367-0.447-8.434,3.512c0.516,2.179,5.783,2.745,8.434,3.515c3.972,1.152,8.052,2.312,8.318,6.911   c0,0.744,0,1.485,0,2.227c-0.784,5.305-4.771,7.41-10.661,7.611c-0.507,0-1.015,0-1.523,0c-6.265-0.099-10.428-2.298-11.127-7.962   c0-0.235,0-0.47,0-0.706c1.874,0.079,4.06-0.155,5.74,0.118C15.995,41.93,16.039,42.001,16.131,42.028z"></path>					<path fill-rule="evenodd" clip-rule="evenodd" fill="#FEFEFE" stroke="#FEFEFE" stroke-linecap="round" stroke-linejoin="round" stroke-miterlimit="10" d="   M43.891,38.044c0.453,4.47,2.289,7.55,6.794,7.964c0.129,0.195,1.047,0.195,1.174,0c3.04-0.201,4.971-1.508,5.504-4.217   c1.761-0.268,4.02-0.041,5.974-0.118c0,0.118,0,0.236,0,0.354c-1.178,5.418-5.155,8.043-11.478,8.314c-0.431,0-0.859,0-1.289,0   c-8.176-0.335-12.296-4.729-13.002-12.532c0-1.208,0-2.419,0-3.631c0.189-3.555,1.374-6.122,3.045-8.199   c0.478-0.379,0.907-0.811,1.288-1.288c1.845-1.473,4.01-2.627,7.145-2.812c1.132,0,2.265,0,3.397,0   c7.105,0.744,10.781,4.916,11.48,12.066c0.075,0.585-0.152,1.478,0.116,1.874c0,0.507,0,1.015,0,1.521   c-6.254,0.316-12.925-0.417-19.328,0c-0.211,0.015-0.988-0.247-0.938,0.353C43.765,37.858,43.755,38.026,43.891,38.044z    M57.712,33.24c-0.449-2.672-1.083-4.563-2.575-5.856c-4.549-3.947-11.411,0.426-11.127,5.621   c-0.092,0.026-0.138,0.101-0.119,0.235C48.226,33.438,53.379,33.438,57.712,33.24z"></path>					<path fill-rule="evenodd" clip-rule="evenodd" fill="#FEFEFE" stroke="#FEFEFE" stroke-linecap="round" stroke-linejoin="round" stroke-miterlimit="10" d="   M92.74,22.465c-0.333,8.707,0.448,18.999,0,27.059c-0.458,8.256-5.509,11.85-14.526,11.242c-5.216-0.347-9.406-2.686-9.605-8.431   c2.03,0,4.06,0,6.092,0c0.074,2.853,1.882,3.974,4.686,4.099c0.279,0.195,1.361,0.195,1.639,0c5.09-0.102,5.717-4.67,5.623-9.957   c-0.399,0.033-1.006,0.865-1.404,1.289c-2.406,3.18-10.572,3.232-13.239,0.234c-0.38-0.477-0.807-0.91-1.286-1.287   c-4.289-4.37-3.947-17.005,0.234-21.206c0.478-0.378,0.907-0.808,1.287-1.285c1.476-1.183,3.094-2.217,5.623-2.344   c0.936,0,1.874,0,2.812,0c2.689,0.123,4.293,1.329,5.973,2.459c0.221,0.45,0.076-1.373,0.118-1.873   C88.757,22.465,90.747,22.465,92.74,22.465z M79.619,26.449c-4.24,0.641-5.45,4.309-5.622,9.02c-0.195,0.278-0.195,1.36,0,1.637   c0.191,4.341,1.267,7.793,5.153,8.437c0.202,0.193,1.203,0.193,1.406,0c1.675-0.121,2.675-0.919,3.75-1.641   c0.477-0.379,0.906-0.809,1.286-1.288c0.284-0.461,0.63-0.857,0.938-1.288c0.195-3.75,0.195-8.32,0-12.065   c-1.393-1.381-2.989-2.559-5.507-2.811C80.824,26.254,79.822,26.254,79.619,26.449z"></path>					<path fill-rule="evenodd" clip-rule="evenodd" fill="#FEFEFE" stroke="#FEFEFE" stroke-linecap="round" stroke-linejoin="round" stroke-miterlimit="10" d="   M258.841,41.674c-0.97,5.473-4.508,8.377-10.658,8.667c-0.469,0-0.938,0-1.404,0c-3.669-0.041-6.188-1.231-8.201-2.925   c-0.341-0.441-0.733-0.835-1.172-1.172c-1.889-2.369-3.177-5.335-3.164-9.606c0-0.391,0-0.782,0-1.17   c0.006-4.218,1.213-7.226,3.164-9.49c0.479-0.379,0.908-0.811,1.289-1.288c1.776-1.543,4.02-2.62,7.146-2.812   c1.092,0,2.187,0,3.277,0c5.779,0.547,9.08,3.572,9.841,9.14c-1.991,0-3.983,0-5.975,0c-0.316-2.81-2.007-4.244-4.802-4.57   c-0.202-0.194-1.203-0.194-1.404,0c-4.356,0.523-5.86,3.903-6.211,8.433c-0.193,0.513-0.193,1.834,0,2.341   c0.21,3.421,1.361,6.724,3.983,7.967c3.506,1.665,8.104-0.036,8.434-3.865c1.683-0.192,4.177-0.197,5.856,0   C258.841,41.44,258.841,41.558,258.841,41.674z"></path>					<path fill-rule="evenodd" clip-rule="evenodd" fill="#FEFEFE" stroke="#FEFEFE" stroke-linecap="round" stroke-linejoin="round" stroke-miterlimit="10" d="   M105.742,40.737c0.116,2.735,1.062,4.639,3.749,4.805c0.239,0.193,1.284,0.193,1.523,0c2.864-0.453,4.493-2.145,5.976-3.984   c0.272-6.127,0.038-12.768,0.116-19.092c2.029,0,4.06,0,6.089,0c0,9.058,0,18.118,0,27.176c-1.991,0-3.981,0-5.972,0   c-0.121-0.766,0.299-4.032-0.353-3.047c-1.94,2.137-4.433,3.79-7.848,3.864c-5.257,0.118-9.214-2.774-9.371-8.549   c0-6.48,0-12.964,0-19.445c1.992,0,3.983,0,5.974,0C105.702,28.517,105.469,34.881,105.742,40.737z"></path>		<path fill-rule="evenodd" clip-rule="evenodd" d="M44.01,33.005c-0.284-5.195,6.578-9.568,11.127-5.621   c1.492,1.293,2.126,3.184,2.575,5.856c-4.26-0.547-9.59,0.734-13.586,0C44.016,33.221,44.033,33.11,44.01,33.005z"></path>		<path fill-rule="evenodd" clip-rule="evenodd" d="M138.188,29.025c1.569-1.269,4.261-2.034,7.03-1.406   c-3.054,4.598-6.265,9.041-8.671,14.291c-0.271-3.395-0.037-7.302-0.115-10.891c0.144-0.25,0.325-0.461,0.468-0.706   C137.38,29.933,137.809,29.502,138.188,29.025z"></path>		<path fill-rule="evenodd" clip-rule="evenodd" d="M73.998,35.469c0.171-4.711,1.382-8.379,5.622-9.02c0.468,0,0.938,0,1.406,0   c2.518,0.252,4.114,1.43,5.507,2.811c0,4.021,0,8.042,0,12.065c-0.308,0.431-0.655,0.827-0.938,1.288   c-0.477,0.379-0.909,0.811-1.286,1.288c-1.075,0.722-2.075,1.52-3.75,1.641c-0.47,0-0.938,0-1.406,0   c-3.887-0.643-4.962-4.095-5.153-8.437C73.998,36.56,73.998,36.014,73.998,35.469z M81.259,31.954   c-0.026-0.093-0.098-0.137-0.234-0.119c-0.077,0-0.157,0-0.235,0c-0.937,1.676-1.052,5.944-0.114,7.731   c0.012-0.219,0.387-0.08,0.35-0.351C81.566,37.256,81.109,34.303,81.259,31.954z"></path>		<path fill-rule="evenodd" clip-rule="evenodd" fill="#7CB900" d="M157.166,15.318c2.916-2.471,7.57-7.43,12.652-4.332   c4.233,2.578,7.203,8.381,9.606,13.237c6.931,14.016,11.345,30.491,15.344,47.44c0.436,1.85,1.083,3.495,0.938,4.449   c-0.176,1.162-2.001,3.307-3.281,3.047c-0.564-0.115-1.47-2.096-1.991-3.047c-4.124-7.551-8.457-15.23-12.884-22.256   c-5.266-8.349-10.464-16.423-17.689-22.49c-6.831-2.406-11.529,3.105-14.994,7.379c-1.441,1.78-2.733,3.757-4.1,5.508   c-1.396,1.787-2.944,3.951-5.153,4.218c0.168-3.397,1.89-6.334,3.397-9.021c4.476-7.984,9.832-15.202,15.813-21.787   C155.652,16.928,156.435,16.148,157.166,15.318z"></path>		<path fill-rule="evenodd" clip-rule="evenodd" fill="#7CB900" d="M173.449,57.138c-3.409-1.934-6.915-4.483-10.776-6.561   c-5.262-2.828-11.838-5.863-19.681-3.863c-0.138-0.402,0.65-0.961,1.171-1.406c2.47-2.122,6.067-5.333,10.895-5.038   c4.901,0.3,8.614,3.354,11.246,6.444C169.124,50.025,171.506,53.737,173.449,57.138z"></path>		<path fill-rule="evenodd" clip-rule="evenodd" d="M141.704,55.026c-9.372,0.08-19.055-0.15-28.23,0.121   c-5.696,1.458-12.112-0.125-14.994-3.282c-1.59,8.601-6.865,13.521-16.399,14.175c-0.978,0-1.954,0-2.93,0   c-8.993-0.768-14.972-4.551-15.697-13.588c-2.997,1.781-7.04,3.247-11.595,3.279c-5.256,0.039-10.28-1.916-13.12-4.449   c-0.438-0.465-1.086-1.336-1.524-1.406c-0.072,0.006-0.139,0.018-0.117,0.115c-0.632,0.699-1.295,1.363-1.99,1.991   c-4.598,4.241-15.136,4.753-21.438,1.993c-6.562-2.873-8.798-8.892-8.785-18.276c0.43-0.387,2.479,0.221,2.343-0.348   c-0.569-1.422-1.122-2.864-1.172-4.802c0-0.587,0-1.173,0-1.759c0.177-3.298,1.437-5.513,2.928-7.496   c0.557-0.459,1.064-0.967,1.522-1.524c5.951-5.708,22.674-5.018,26.357,2.227c2.879-2.968,6.926-5.455,12.534-5.974   c5.831-0.542,10.866,1.255,14.291,3.982c0.768,0.715,1.511,1.454,2.227,2.224c0.116,0.155,0.11,0.436,0.351,0.47   c3.218-4.764,10.084-8.149,18.157-6.208c18.194,0.194,37.21,0.194,55.404,0c1.381-0.314,2.701-0.604,4.218-0.585   c1.075,0.012,2.183,0.504,3.046,0.35c1.508-0.266,1.678-2.11,2.813-2.811c0.984-0.891,1.921-1.826,2.81-2.812   c3.588-3.011,6.935-6.26,12.652-7.144c0.624,0,1.248,0,1.873,0c3.813,0.442,6.331,2.179,8.668,4.098   c0.614,0.712,1.279,1.377,1.991,1.994c1.86,2.12,3.391,4.575,5.036,6.911c0,0.038,0,0.077,0,0.118   c4.61-0.081,9.527,0.155,13.943-0.118c1.47-0.324,2.948-0.643,4.801-0.585c0.04,0,0.078,0,0.117,0c0-2.032,0-4.063,0-6.091   c4.919,0,9.841,0,14.759,0c0.039,0,0.079,0,0.118,0c0-1.211,0-2.423,0-3.634c5.543-0.274,11.596-0.039,17.336-0.115   c0,4.764,0,9.528,0,14.293c0.133-0.015,0.183,0.168,0.232,0c4.811-5.275,18.73-6.009,24.25-0.706   c0.736,0.669,1.438,1.37,2.108,2.108c0.827,1.088,1.838,2.73,2.575,4.688c0.67,1.761,1.564,4.335,1.057,6.089   c-0.473,1.628-2.418,2.144-3.514,3.396c0.006,0.074,0.016,0.141,0.114,0.118c0.928,1.065,1.996,1.988,2.931,3.046   c1.123,2.771-0.638,6.167-1.641,8.319c3.263,0.406,5.14,2.198,5.621,5.389c0,0.194,0,0.389,0,0.583   c-0.477,2.958-2.021,4.851-5.035,5.272c-0.429,0-0.859,0-1.289,0c-2.885-0.511-4.603-2.195-4.919-5.272   c-6.169,3.825-18.019,2.548-22.259-2.106c-0.004-0.074-0.018-0.139-0.116-0.12c-0.263,1.066-0.045,2.612-0.116,3.864   c-4.999,0.08-10.311-0.15-15.111,0.121c-4.955,0.817-10.351,0.074-13.119-2.342c-0.381-0.479-0.81-0.91-1.291-1.291   c-1.637-2.031-2.603-4.737-2.693-8.317c-0.078-3.356,0.156-7.028-0.117-10.193c-0.566-0.251-1.586-0.052-2.342-0.115   c0,0.118-0.096,0.139-0.118,0.236c0,7.299,0,14.602,0,21.901c-0.468,0-0.937,0-1.406,0c-0.018,0.139,0.027,0.211,0.118,0.236   c0.738,3.245,1.622,6.567,2.46,10.074c0.793,3.318,1.911,7.072,1.874,10.66c-0.05,4.988-4.919,9.755-10.073,9.605   c-5.206-0.15-6.687-5.315-8.902-8.666c-2.442-3.699-4.938-6.932-7.849-9.844c-0.576-0.67-1.201-1.295-1.874-1.871   c-5.883-5.365-12.075-10.418-22.609-11.131c-0.394-0.193-1.597-0.193-1.989,0c-2.614-0.111-4.887,0.739-6.678,1.057    M172.041,11.454c-1.521-1.37-3.492-2.735-5.855-2.696c-3.983,0.067-6.845,3.539-9.137,5.272c-0.384,0.202-0.554,0.62-0.937,0.82   c-0.595,0.497-1.142,1.044-1.64,1.641c-0.24,0.422-0.695,0.631-0.936,1.055c-2.719,2.823-5.197,5.89-7.499,9.135   c-0.52-1.053,0.496-4.573-0.585-4.803c-0.196,0-0.391,0-0.586,0c-0.471-0.194-1.754-0.194-2.225,0   c-1.829,0.164-2.988,0.996-4.1,1.874c-0.44,0.343-0.831,0.732-1.171,1.173c-0.362,0.42-0.705,0.859-1.055,1.289   c0-1.25,0-2.502,0-3.749c-1.762-0.191-4.333-0.197-6.092,0c0,9.095,0,18.195,0,27.293c1.992-0.079,4.294,0.156,6.092-0.117   c2.738-0.926,4.662-4.047,6.325-6.21c1.897-2.469,3.618-4.654,5.388-6.674c0.596-0.497,1.143-1.046,1.64-1.641   c2.194-2.528,7.803-4.901,11.01-1.758c0.506,0.553,1.096,1.015,1.641,1.524c9.854,11.211,18.271,25.717,25.888,39.594   c0.542,0.984,2.604,5.449,3.632,5.737c2.335,0.662,4.886-2.265,5.038-4.101c0.077-0.957-0.426-2.223-0.703-3.396   c-1.855-7.844-3.864-15.852-6.092-22.957c1.248,0,2.498,0,3.748,0c0-6.246,0-12.496,0-18.74c1.644-2.618,4.949-4.278,9.371-3.399   c0.192-1.137,0.197-4.097,0-5.623c-0.05-0.264-0.577-0.048-0.82-0.118c-0.511-0.194-1.831-0.194-2.342,0   c-1.788,0.166-2.958,0.946-3.983,1.874c-0.53,0.408-0.999,0.878-1.406,1.406c-0.312,0.312-0.619,0.631-0.82,1.056   c-0.273-1.019-0.042-2.541-0.117-3.749c-1.759-0.197-4.333-0.197-6.092,0c-0.077,6.405,0.156,13.119-0.117,19.327   c-3.57-10.603-7.355-20.993-13.82-28.698C173.184,12.498,172.637,11.953,172.041,11.454z M228.856,11.921   c-1.797-0.271-4.1-0.04-6.093-0.118c-0.193,1.689-0.193,4.171,0,5.86c1.993-0.079,4.296,0.154,6.093-0.118   C228.856,15.67,228.856,13.797,228.856,11.921z M213.861,15.67c-0.837-0.208-1.786-0.118-3.045-0.118   c-0.698,0-2.749-0.377-3.163,0.118c-0.396,0.475,0,2.584,0,3.395c0,1.262,0.097,2.394-0.118,3.282   c-1.054,0.079-2.419-0.157-3.279,0.118c0,1.481,0,2.966,0,4.449c0.896,0.274,2.302,0.041,3.396,0.118   c0.08,5.234-0.155,10.778,0.117,15.816c-0.823,6.63,5.033,8.224,11.01,6.911c0-1.484,0-2.967,0-4.451   c-2.939,0.872-5.221-0.322-4.919-3.397c0.079-4.917-0.156-10.153,0.116-14.878c1.448,0,2.892,0,4.335,0c0-1.524,0-3.044,0-4.566   c-1.25-0.275-3.005-0.04-4.451-0.118C213.861,20.123,213.861,17.897,213.861,15.67z M19.881,21.879   c-5.427-0.029-11.243,4.855-8.553,11.011c1.521,3.481,6.195,4.604,10.308,5.625c2.411,0.598,5.754,1.212,6.091,3.395   c0.902,5.856-12.122,5.864-11.595,0.118c0.177-0.718-0.685-0.438-1.056-0.47c-1.637-0.137-3.507,0.107-4.918,0   c0.07,0.244-0.146,0.77,0.117,0.822c0.699,5.664,4.862,7.863,11.127,7.962c0.242,0.196,1.283,0.196,1.523,0   c5.889-0.201,9.876-2.306,10.661-7.611c0.195-0.474,0.195-1.757,0-2.227c-0.267-4.599-4.347-5.759-8.318-6.911   c-2.65-0.77-7.918-1.335-8.434-3.515c-0.934-3.958,5.341-5.222,8.434-3.512c1.378,0.758,1.368,1.914,1.992,3.042   c1.875,0,3.75,0,5.624,0c-0.274-5.385-3.933-7.388-9.255-7.729C22.651,21.685,20.856,21.685,19.881,21.879z M49.046,21.879   c-3.135,0.185-5.3,1.339-7.145,2.812c-0.48,0.378-0.908,0.811-1.288,1.288c-1.671,2.078-2.856,4.644-3.045,8.199   c-0.195,0.94-0.195,2.692,0,3.631c0.706,7.803,4.826,12.197,13.002,12.532c0.165,0.194,1.125,0.194,1.289,0   c6.323-0.271,10.3-2.896,11.478-8.314c0.376-0.756-1.525-0.47-2.81-0.47c-1.277,0-2.79-0.167-3.164,0.234   c-0.533,2.708-2.464,4.016-5.504,4.217c-0.392,0-0.783,0-1.174,0c-4.505-0.414-6.341-3.495-6.794-7.964   c0.072-0.098-0.091-0.521,0-0.587c0.612-0.438,4.045,0,5.038,0c5.191,0,10.831,0.093,15.11-0.118c0-0.506,0-1.014,0-1.521   c-0.076-0.588,0.155-1.483-0.116-1.874c-0.699-7.15-4.375-11.322-11.48-12.066C51.583,21.685,49.906,21.685,49.046,21.879z    M77.863,21.879c-2.529,0.127-4.147,1.161-5.623,2.344c-0.479,0.378-0.908,0.808-1.287,1.285   c-4.182,4.201-4.523,16.836-0.234,21.206c0.354,0.502,0.782,0.932,1.286,1.287c2.667,2.998,10.833,2.945,13.239-0.234   c0.537-0.357,0.866-0.93,1.404-1.289c0.094,5.287-0.533,9.855-5.623,9.957c-0.545,0-1.092,0-1.639,0   c-2.804-0.125-4.611-1.246-4.686-4.099c-2.032,0-4.062,0-6.092,0c0.2,5.745,4.389,8.084,9.605,8.431   c9.017,0.607,14.068-2.986,14.526-11.242c0.448-8.061-0.333-18.353,0-27.059c-1.757-0.197-4.335-0.197-6.092,0   c0,0.625,0,1.247,0,1.873c-1.679-1.13-3.284-2.337-5.973-2.459C80.008,21.685,78.529,21.685,77.863,21.879z M245.841,21.879   c-3.127,0.192-5.37,1.269-7.146,2.812c-0.479,0.378-0.909,0.811-1.289,1.288c-1.951,2.264-3.158,5.272-3.164,9.49   c-0.192,0.124-0.192,1.044,0,1.17c-0.013,4.271,1.275,7.237,3.164,9.606c0.343,0.44,0.732,0.826,1.172,1.172   c2.014,1.693,4.532,2.884,8.201,2.925c0.201,0.194,1.202,0.194,1.404,0c6.15-0.29,9.688-3.194,10.658-8.667   c0.535-0.897-1.443-0.585-2.693-0.585c-1.332,0-2.803-0.168-3.163,0.235c-0.33,3.829-4.928,5.53-8.434,3.865   c-2.622-1.243-3.773-4.546-3.983-7.967c0-0.78,0-1.562,0-2.341c0.351-4.529,1.854-7.91,6.211-8.433c0.467,0,0.936,0,1.404,0   c2.795,0.326,4.485,1.761,4.802,4.57c1.991,0,3.983,0,5.975,0c-0.761-5.568-4.062-8.593-9.841-9.14   C248.299,21.685,246.663,21.685,245.841,21.879z M99.532,22.465c0.079,6.442-0.154,13.195,0.118,19.445   c0.157,5.774,4.114,8.667,9.371,8.549c3.416-0.074,5.908-1.728,7.848-3.864c0.6,0.122-0.058,2.469,0.353,3.164   c1.99,0,3.981,0,5.972,0c0.275-8.864,0.04-18.236,0.118-27.293c-1.837-0.27-4.176-0.042-6.208-0.118   c-0.274,6.169-0.04,12.848-0.116,19.21c-1.482,1.84-3.111,3.531-5.976,3.984c-0.507,0-1.016,0-1.523,0   c-2.687-0.166-3.632-2.07-3.749-4.805c0-3.823,0-9.164,0-13.705c0-1.048,0.421-4.062,0-4.566   c-0.394-0.474-2.504-0.118-3.045-0.118C101.396,22.347,100.371,22.258,99.532,22.465z M228.856,22.465   c-1.797-0.275-4.1-0.04-6.093-0.118c-0.195,8.864-0.195,18.548,0,27.412c2.031,0,4.061,0,6.093,0   C228.856,40.661,228.856,31.561,228.856,22.465z M248.066,33.945c-0.074-1.096-0.275-2.068-1.405-2.11   c-0.735,0.633-0.948,1.787-0.937,3.164c-0.196,0.239-0.196,1.283,0,1.524c0.053,1.388,0.107,2.779,1.055,3.278   c1.012-0.431,1.183-1.706,1.287-3.044C248.259,36.09,248.259,34.61,248.066,33.945z M164.897,43.783   c-2.547-2.135-5.258-4.255-9.372-4.567c-4.78-0.362-7.14,1.521-9.957,3.632c-2.223,1.667-4.601,3.46-5.271,5.741   c2.576-0.771,5.068-1.416,8.201-1.406c6.146,0.014,10.89,2.775,15.344,5.388c4.558,2.673,8.877,5.438,12.768,8.081   c-2.763-5.594-6.051-10.66-9.956-15.109C166.118,44.909,165.532,44.321,164.897,43.783z M261.539,56.902   c5.754,0.687,5.568-8.611-0.235-7.496C256.91,50.253,257.849,56.464,261.539,56.902z"></path>					<path fill-rule="evenodd" clip-rule="evenodd" fill="#FEFEFE" stroke="#FEFEFE" stroke-linecap="round" stroke-linejoin="round" stroke-miterlimit="10" d="   M246.779,32.069c1.941,0.78,1.407,6.592,0,7.497C245.503,38.088,245.455,33.533,246.779,32.069z"></path>					<path fill-rule="evenodd" clip-rule="evenodd" fill="#FEFEFE" stroke="#FEFEFE" stroke-linecap="round" stroke-linejoin="round" stroke-miterlimit="10" d="   M81.259,31.954c-0.349,2.15,0.116,5.11-0.234,7.262c0.037,0.271-0.338,0.132-0.35,0.351c-0.938-1.788-0.822-6.055,0.114-7.731   c0.079,0,0.158,0,0.235,0C81.162,31.817,81.233,31.861,81.259,31.954z"></path>	</g>	<path d="M98.222,63.235c-0.109,0.092-0.166,0.209-0.166,0.357c0,0.149,0.068,0.27,0.201,0.355c0.136,0.09,0.444,0.192,0.93,0.312  c0.487,0.121,0.864,0.298,1.132,0.538c0.267,0.237,0.403,0.588,0.403,1.046s-0.173,0.832-0.517,1.12  c-0.344,0.283-0.797,0.425-1.357,0.425c-0.812,0-1.542-0.3-2.188-0.899l0.681-0.836c0.55,0.486,1.061,0.725,1.528,0.725  c0.209,0,0.375-0.043,0.493-0.135c0.121-0.088,0.182-0.209,0.182-0.363c0-0.156-0.064-0.275-0.19-0.367  c-0.128-0.089-0.378-0.183-0.755-0.275c-0.595-0.143-1.03-0.324-1.307-0.555c-0.275-0.225-0.414-0.58-0.414-1.067  c0-0.485,0.175-0.858,0.524-1.122c0.347-0.265,0.783-0.395,1.307-0.395c0.34,0,0.683,0.057,1.025,0.171  c0.342,0.119,0.637,0.288,0.892,0.501l-0.579,0.835c-0.444-0.339-0.902-0.507-1.376-0.507  C98.482,63.099,98.332,63.147,98.222,63.235z"></path>	<path d="M104.997,66.757c-0.443,0.42-0.965,0.632-1.562,0.632c-0.599,0-1.094-0.183-1.482-0.552  c-0.391-0.368-0.585-0.861-0.585-1.482c0-0.619,0.198-1.113,0.596-1.48c0.398-0.365,0.867-0.547,1.408-0.547  s1.003,0.163,1.38,0.492c0.378,0.326,0.567,0.774,0.567,1.346v0.586h-2.869c0.034,0.213,0.146,0.39,0.336,0.526  c0.19,0.138,0.405,0.204,0.646,0.204c0.385,0,0.703-0.129,0.949-0.387L104.997,66.757z M103.942,64.424  c-0.149-0.125-0.335-0.19-0.552-0.19c-0.216,0-0.416,0.067-0.596,0.199c-0.18,0.131-0.286,0.307-0.315,0.533h1.729  C104.182,64.732,104.094,64.553,103.942,64.424z"></path>	<path d="M109.024,66.666c-0.347,0.384-0.777,0.579-1.292,0.579c-0.516,0-0.95-0.176-1.304-0.526  c-0.354-0.348-0.53-0.815-0.53-1.396c0-0.586,0.181-1.063,0.546-1.438c0.363-0.371,0.78-0.559,1.248-0.559  c0.469,0,0.857,0.194,1.164,0.578v-0.521h1.097v3.434c0,0.354-0.061,0.665-0.183,0.938c-0.121,0.275-0.285,0.487-0.49,0.646  c-0.404,0.318-0.884,0.481-1.434,0.481c-0.294,0-0.593-0.048-0.897-0.144c-0.305-0.094-0.572-0.229-0.802-0.406l0.426-0.826  c0.359,0.272,0.741,0.412,1.144,0.412s0.722-0.101,0.956-0.303C108.906,67.415,109.024,67.099,109.024,66.666z M108.869,65.276  c0-0.314-0.087-0.561-0.263-0.74c-0.175-0.183-0.392-0.273-0.651-0.273c-0.258,0-0.482,0.091-0.67,0.273  c-0.188,0.18-0.283,0.426-0.283,0.736c0,0.314,0.092,0.566,0.275,0.762c0.186,0.191,0.407,0.287,0.671,0.287  c0.264,0,0.483-0.096,0.658-0.285C108.782,65.844,108.869,65.591,108.869,65.276z"></path>	<path d="M113.534,65.515v-2.123h1.106v3.939h-1.106V66.81c-0.273,0.387-0.625,0.579-1.058,0.579c-0.434,0-0.793-0.134-1.088-0.403  c-0.293-0.273-0.438-0.674-0.438-1.205v-2.389h1.104v2.147c0,0.602,0.222,0.903,0.667,0.903c0.22,0,0.411-0.078,0.57-0.236  C113.454,66.048,113.534,65.819,113.534,65.515z"></path>	<path d="M117.751,64.358c-0.328,0-0.571,0.115-0.732,0.346c-0.161,0.232-0.242,0.542-0.242,0.922v1.705h-1.098v-3.939h1.098v0.521  c0.141-0.164,0.319-0.298,0.53-0.41c0.212-0.111,0.43-0.17,0.648-0.176l0.007,1.031H117.751z"></path>	<path d="M122.568,65.364c0,0.57-0.198,1.051-0.594,1.441c-0.396,0.389-0.892,0.583-1.488,0.583c-0.599,0-1.095-0.194-1.49-0.583  c-0.396-0.391-0.593-0.871-0.593-1.441c0-0.574,0.197-1.056,0.593-1.447c0.395-0.393,0.891-0.59,1.49-0.59  c0.597,0,1.093,0.197,1.488,0.59C122.37,64.309,122.568,64.79,122.568,65.364z M119.508,65.364c0,0.318,0.091,0.581,0.276,0.783  c0.182,0.205,0.416,0.305,0.702,0.305c0.287,0,0.52-0.1,0.703-0.305c0.183-0.202,0.274-0.465,0.274-0.783  c0-0.324-0.091-0.588-0.274-0.793s-0.416-0.309-0.703-0.309c-0.286,0-0.52,0.104-0.702,0.309  C119.599,64.776,119.508,65.04,119.508,65.364z"></path>	<path d="M126.309,66.105c0,0.389-0.143,0.7-0.429,0.933c-0.285,0.232-0.648,0.351-1.087,0.351c-0.292,0-0.596-0.053-0.914-0.156  c-0.319-0.106-0.603-0.259-0.856-0.463l0.483-0.69c0.409,0.316,0.848,0.477,1.309,0.477c0.142,0,0.254-0.031,0.337-0.084  c0.084-0.057,0.126-0.132,0.126-0.226c0-0.091-0.058-0.177-0.172-0.257c-0.117-0.078-0.283-0.148-0.499-0.217  c-0.217-0.068-0.385-0.128-0.498-0.179c-0.114-0.048-0.247-0.12-0.393-0.211c-0.297-0.185-0.446-0.46-0.446-0.823  c0-0.361,0.146-0.658,0.44-0.889c0.292-0.229,0.671-0.344,1.133-0.344c0.464,0,0.928,0.156,1.391,0.468l-0.409,0.731  c-0.342-0.232-0.682-0.351-1.023-0.351c-0.337,0-0.507,0.093-0.507,0.279c0,0.101,0.053,0.182,0.16,0.241  c0.109,0.059,0.287,0.125,0.536,0.205c0.249,0.076,0.425,0.137,0.53,0.177c0.105,0.041,0.23,0.108,0.378,0.194  C126.17,65.44,126.309,65.719,126.309,66.105z"></path>	<path d="M130.661,67.389c-0.465,0-0.881-0.196-1.248-0.593c-0.367-0.394-0.549-0.885-0.549-1.47c0-0.587,0.179-1.066,0.536-1.44  c0.355-0.371,0.772-0.559,1.25-0.559c0.48,0,0.869,0.168,1.172,0.504v-1.932h1.099v5.432h-1.099V66.81  C131.515,67.196,131.126,67.389,130.661,67.389z M129.97,65.368c0,0.32,0.096,0.577,0.284,0.779  c0.19,0.205,0.414,0.305,0.667,0.305c0.254,0,0.471-0.1,0.647-0.305c0.179-0.202,0.268-0.462,0.268-0.781s-0.089-0.586-0.268-0.801  c-0.177-0.209-0.396-0.317-0.655-0.317c-0.258,0-0.48,0.108-0.664,0.323C130.064,64.788,129.97,65.052,129.97,65.368z"></path>	<path d="M137.372,66.757c-0.444,0.42-0.966,0.632-1.563,0.632c-0.599,0-1.092-0.183-1.483-0.552  c-0.391-0.368-0.585-0.861-0.585-1.482c0-0.619,0.199-1.113,0.597-1.48c0.397-0.365,0.868-0.547,1.409-0.547  c0.54,0,1.001,0.163,1.379,0.492c0.378,0.326,0.567,0.774,0.567,1.346v0.586h-2.869c0.035,0.213,0.146,0.39,0.336,0.526  c0.19,0.138,0.406,0.204,0.646,0.204c0.385,0,0.701-0.129,0.952-0.387L137.372,66.757z M136.317,64.424  c-0.152-0.125-0.335-0.19-0.553-0.19c-0.218,0-0.416,0.067-0.597,0.199c-0.18,0.131-0.285,0.307-0.314,0.533h1.728  C136.554,64.732,136.469,64.553,136.317,64.424z"></path>	<path d="M140.775,63.327c0.459,0,0.869,0.189,1.225,0.576c0.359,0.381,0.54,0.861,0.54,1.443c0,0.581-0.18,1.068-0.54,1.459  c-0.356,0.389-0.776,0.583-1.256,0.583c-0.482,0-0.869-0.192-1.163-0.579v1.941h-1.099v-5.359h1.099v0.439  C139.919,63.495,140.316,63.327,140.775,63.327z M139.567,65.366c0,0.319,0.089,0.579,0.267,0.781  c0.178,0.205,0.395,0.305,0.647,0.305c0.254,0,0.476-0.1,0.667-0.305c0.19-0.202,0.285-0.459,0.285-0.779  c0-0.316-0.092-0.58-0.278-0.797c-0.185-0.215-0.408-0.323-0.665-0.323c-0.258,0-0.478,0.108-0.656,0.317  C139.656,64.78,139.567,65.047,139.567,65.366z"></path>	<path d="M147.298,65.364c0,0.57-0.198,1.051-0.593,1.441c-0.396,0.389-0.893,0.583-1.489,0.583c-0.599,0-1.094-0.194-1.492-0.583  c-0.394-0.391-0.592-0.871-0.592-1.441c0-0.574,0.198-1.056,0.592-1.447c0.397-0.393,0.893-0.59,1.492-0.59  c0.597,0,1.093,0.197,1.489,0.59C147.1,64.309,147.298,64.79,147.298,65.364z M144.239,65.364c0,0.318,0.091,0.581,0.274,0.783  c0.182,0.205,0.417,0.305,0.703,0.305c0.285,0,0.519-0.1,0.703-0.305c0.182-0.202,0.273-0.465,0.273-0.783  c0-0.324-0.092-0.588-0.273-0.793c-0.185-0.205-0.418-0.309-0.703-0.309c-0.286,0-0.521,0.104-0.703,0.309  C144.33,64.776,144.239,65.04,144.239,65.364z"></path>	<path d="M150.183,64.358c-0.327,0-0.571,0.115-0.732,0.346c-0.161,0.232-0.24,0.542-0.24,0.922v1.705h-1.1v-3.939h1.1v0.521  c0.141-0.164,0.317-0.298,0.53-0.41c0.212-0.111,0.429-0.17,0.648-0.176l0.007,1.031H150.183z"></path>	<path d="M152.431,64.185v1.762c0,0.151,0.039,0.271,0.116,0.355c0.079,0.084,0.171,0.129,0.278,0.129  c0.206,0,0.378-0.094,0.52-0.277l0.411,0.768c-0.341,0.312-0.701,0.468-1.08,0.468c-0.379,0-0.699-0.122-0.96-0.374  c-0.26-0.245-0.394-0.586-0.394-1.015v-1.815h-0.459v-0.793h0.459v-1.18h1.108v1.18h0.951v0.793H152.431z"></path>	<path d="M154.434,62.89c-0.126-0.123-0.188-0.275-0.188-0.455s0.062-0.333,0.188-0.461c0.122-0.121,0.277-0.184,0.456-0.184  c0.181,0,0.334,0.062,0.458,0.184c0.126,0.128,0.187,0.281,0.187,0.461s-0.061,0.332-0.187,0.455  c-0.124,0.125-0.277,0.188-0.458,0.188C154.711,63.078,154.556,63.015,154.434,62.89z M155.439,67.331h-1.098v-3.939h1.098V67.331z  "></path>	<path d="M157.54,67.331l-1.559-3.947h1.143l0.982,2.483l0.981-2.483h1.143l-1.562,3.947H157.54z"></path>	<path d="M164.622,65.364c0,0.57-0.201,1.051-0.594,1.441c-0.396,0.389-0.893,0.583-1.49,0.583c-0.597,0-1.096-0.194-1.49-0.583  c-0.396-0.391-0.594-0.871-0.594-1.441c0-0.574,0.198-1.056,0.594-1.447c0.395-0.393,0.894-0.59,1.49-0.59  c0.598,0,1.095,0.197,1.49,0.59C164.421,64.309,164.622,64.79,164.622,65.364z M161.561,65.364c0,0.318,0.091,0.581,0.275,0.783  c0.183,0.205,0.416,0.305,0.702,0.305c0.285,0,0.519-0.1,0.703-0.305c0.182-0.202,0.274-0.465,0.274-0.783  c0-0.324-0.092-0.588-0.274-0.793c-0.184-0.205-0.417-0.309-0.703-0.309c-0.286,0-0.52,0.104-0.702,0.309  C161.652,64.776,161.561,65.04,161.561,65.364z"></path>	<path d="M168.362,66.105c0,0.389-0.145,0.7-0.43,0.933c-0.284,0.232-0.646,0.351-1.086,0.351c-0.293,0-0.6-0.053-0.914-0.156  c-0.318-0.106-0.604-0.259-0.858-0.463l0.483-0.69c0.41,0.316,0.848,0.477,1.311,0.477c0.142,0,0.253-0.031,0.337-0.084  c0.081-0.057,0.123-0.132,0.123-0.226c0-0.091-0.058-0.177-0.17-0.257c-0.116-0.078-0.281-0.148-0.498-0.217  c-0.217-0.068-0.383-0.128-0.499-0.179c-0.114-0.048-0.243-0.12-0.392-0.211c-0.297-0.185-0.446-0.46-0.446-0.823  c0-0.361,0.146-0.658,0.439-0.889c0.293-0.229,0.672-0.344,1.135-0.344s0.927,0.156,1.39,0.468l-0.409,0.731  c-0.342-0.232-0.683-0.351-1.021-0.351c-0.341,0-0.51,0.093-0.51,0.279c0,0.101,0.054,0.182,0.161,0.241  c0.107,0.059,0.286,0.125,0.533,0.205c0.25,0.076,0.428,0.137,0.532,0.177c0.105,0.041,0.232,0.108,0.377,0.194  C168.225,65.44,168.362,65.719,168.362,66.105z"></path>	<path d="M169.35,67.245c-0.171-0.123-0.256-0.281-0.256-0.476c0-0.196,0.065-0.356,0.198-0.482c0.132-0.125,0.29-0.187,0.476-0.187  c0.184,0,0.345,0.062,0.479,0.182c0.134,0.123,0.203,0.267,0.203,0.43s-0.07,0.359-0.214,0.59l-0.438,0.754h-0.725L169.35,67.245z"></path>	<path d="M207.198,65.364c0,0.57-0.198,1.051-0.594,1.441c-0.395,0.389-0.892,0.583-1.49,0.583c-0.596,0-1.094-0.194-1.488-0.583  c-0.396-0.391-0.594-0.871-0.594-1.441c0-0.574,0.198-1.056,0.594-1.447c0.394-0.393,0.893-0.59,1.488-0.59  c0.599,0,1.096,0.197,1.49,0.59C207,64.309,207.198,64.79,207.198,65.364z M204.138,65.364c0,0.318,0.091,0.581,0.274,0.783  c0.184,0.205,0.417,0.305,0.702,0.305c0.286,0,0.521-0.1,0.703-0.305c0.183-0.202,0.274-0.465,0.274-0.783  c0-0.324-0.091-0.588-0.274-0.793c-0.182-0.205-0.417-0.309-0.703-0.309c-0.285,0-0.518,0.104-0.702,0.309  C204.229,64.776,204.138,65.04,204.138,65.364z"></path>	<path d="M209.899,66.417c0.366,0,0.695-0.183,0.988-0.55l0.652,0.731c-0.509,0.527-1.056,0.79-1.646,0.79  c-0.59,0-1.09-0.185-1.498-0.56c-0.406-0.374-0.61-0.861-0.61-1.463c0-0.605,0.206-1.094,0.619-1.473  c0.41-0.379,0.9-0.566,1.467-0.566c0.283,0,0.569,0.057,0.859,0.176c0.291,0.117,0.545,0.287,0.766,0.52l-0.57,0.747  c-0.127-0.151-0.284-0.27-0.465-0.354c-0.184-0.081-0.365-0.122-0.546-0.122c-0.289,0-0.535,0.091-0.743,0.281  c-0.207,0.186-0.311,0.45-0.311,0.781c0,0.336,0.104,0.598,0.311,0.783C209.378,66.323,209.62,66.417,209.899,66.417z"></path>	<path d="M212.363,62.89c-0.124-0.123-0.187-0.275-0.187-0.455s0.062-0.333,0.187-0.461c0.124-0.121,0.275-0.184,0.458-0.184  c0.18,0,0.332,0.062,0.458,0.184c0.123,0.128,0.185,0.281,0.185,0.461s-0.062,0.332-0.185,0.455  c-0.126,0.125-0.278,0.188-0.458,0.188C212.638,63.078,212.487,63.015,212.363,62.89z M213.37,67.331h-1.098v-3.939h1.098V67.331z"></path>	<path d="M218.347,65.364c0,0.57-0.198,1.051-0.592,1.441c-0.396,0.389-0.894,0.583-1.49,0.583c-0.599,0-1.095-0.194-1.491-0.583  c-0.394-0.391-0.592-0.871-0.592-1.441c0-0.574,0.198-1.056,0.592-1.447c0.396-0.393,0.892-0.59,1.491-0.59  c0.596,0,1.094,0.197,1.49,0.59C218.149,64.309,218.347,64.79,218.347,65.364z M215.287,65.364c0,0.318,0.091,0.581,0.275,0.783  c0.183,0.205,0.416,0.305,0.703,0.305c0.284,0,0.52-0.1,0.702-0.305c0.182-0.202,0.273-0.465,0.273-0.783  c0-0.324-0.091-0.588-0.273-0.793c-0.183-0.205-0.418-0.309-0.702-0.309c-0.287,0-0.521,0.104-0.703,0.309  C215.378,64.776,215.287,65.04,215.287,65.364z"></path>	<path d="M221.774,68.883c-0.386,0-0.749-0.155-1.093-0.468l0.5-0.813c0.184,0.181,0.375,0.272,0.571,0.272  c0.102,0,0.19-0.052,0.263-0.149c0.073-0.101,0.11-0.207,0.11-0.319c0-0.115-0.507-1.449-1.522-4.014h1.172l0.958,2.452  l0.959-2.452h1.172l-1.829,4.643c-0.109,0.268-0.275,0.477-0.503,0.623C222.304,68.809,222.052,68.883,221.774,68.883z"></path>	<path d="M228.406,67.331l-1.558-3.947h1.142l0.98,2.483l0.979-2.483h1.144l-1.56,3.947H228.406z"></path>	<path d="M231.726,62.89c-0.125-0.123-0.186-0.275-0.186-0.455s0.061-0.333,0.186-0.461c0.125-0.121,0.277-0.184,0.458-0.184  s0.334,0.062,0.458,0.184c0.124,0.128,0.186,0.281,0.186,0.461s-0.062,0.332-0.186,0.455c-0.124,0.125-0.277,0.188-0.458,0.188  S231.851,63.015,231.726,62.89z M232.734,67.331h-1.098v-3.939h1.098V67.331z"></path>	<path d="M237.119,67.331h-1.031v-0.475c-0.285,0.354-0.633,0.532-1.053,0.532c-0.417,0-0.768-0.12-1.051-0.362  c-0.281-0.24-0.424-0.564-0.424-0.965c0-0.402,0.146-0.705,0.439-0.904c0.292-0.201,0.693-0.303,1.201-0.303h0.819v-0.021  c0-0.42-0.224-0.627-0.666-0.627c-0.191,0-0.392,0.035-0.603,0.111c-0.213,0.078-0.394,0.169-0.539,0.283l-0.492-0.709  c0.519-0.377,1.107-0.564,1.773-0.564c0.477,0,0.867,0.119,1.17,0.357c0.304,0.239,0.455,0.616,0.455,1.135V67.331z   M236.012,65.829V65.64h-0.687c-0.44,0-0.66,0.139-0.66,0.408c0,0.145,0.052,0.251,0.158,0.328  c0.104,0.076,0.256,0.113,0.449,0.113c0.195,0,0.367-0.059,0.517-0.178C235.938,66.192,236.012,66.028,236.012,65.829z"></path>	<path d="M238.496,67.405v-4.021h1.098v4.107c0,0.43-0.131,0.768-0.391,1.02c-0.264,0.247-0.584,0.372-0.96,0.372  c-0.379,0-0.739-0.155-1.082-0.468l0.507-0.813c0.146,0.169,0.311,0.257,0.49,0.257c0.098,0,0.177-0.039,0.24-0.115  C238.463,67.667,238.496,67.557,238.496,67.405z M238.587,62.89c-0.125-0.123-0.189-0.275-0.189-0.455s0.064-0.333,0.189-0.461  c0.124-0.121,0.275-0.184,0.457-0.184c0.18,0,0.332,0.062,0.458,0.184c0.123,0.128,0.187,0.281,0.187,0.461  s-0.063,0.332-0.187,0.455c-0.126,0.125-0.278,0.188-0.458,0.188C238.863,63.078,238.711,63.015,238.587,62.89z"></path>	<path d="M244.044,66.757c-0.445,0.42-0.967,0.632-1.564,0.632c-0.596,0-1.09-0.183-1.482-0.552  c-0.39-0.368-0.584-0.861-0.584-1.482c0-0.619,0.198-1.113,0.597-1.48c0.397-0.365,0.866-0.547,1.409-0.547  c0.542,0,1.001,0.163,1.379,0.492c0.379,0.326,0.568,0.774,0.568,1.346v0.586h-2.871c0.035,0.213,0.146,0.39,0.338,0.526  c0.189,0.138,0.405,0.204,0.643,0.204c0.388,0,0.705-0.129,0.953-0.387L244.044,66.757z M242.989,64.424  c-0.151-0.125-0.335-0.19-0.552-0.19s-0.415,0.067-0.598,0.199c-0.18,0.131-0.285,0.307-0.312,0.533h1.726  C243.23,64.732,243.141,64.553,242.989,64.424z"></path>	<path d="M248.122,66.105c0,0.389-0.142,0.7-0.429,0.933c-0.284,0.232-0.648,0.351-1.087,0.351c-0.295,0-0.599-0.053-0.915-0.156  c-0.318-0.106-0.603-0.259-0.857-0.463l0.484-0.69c0.409,0.316,0.846,0.477,1.311,0.477c0.143,0,0.254-0.031,0.336-0.084  c0.084-0.057,0.125-0.132,0.125-0.226c0-0.091-0.058-0.177-0.171-0.257c-0.116-0.078-0.282-0.148-0.499-0.217  s-0.384-0.128-0.497-0.179c-0.116-0.048-0.247-0.12-0.394-0.211c-0.298-0.185-0.445-0.46-0.445-0.823  c0-0.361,0.147-0.658,0.439-0.889c0.291-0.229,0.671-0.344,1.134-0.344c0.464,0,0.929,0.156,1.393,0.468l-0.411,0.731  c-0.341-0.232-0.683-0.351-1.021-0.351c-0.34,0-0.51,0.093-0.51,0.279c0,0.101,0.055,0.182,0.162,0.241  c0.108,0.059,0.285,0.125,0.534,0.205c0.249,0.076,0.426,0.137,0.531,0.177c0.104,0.041,0.229,0.108,0.376,0.194  C247.983,65.44,248.122,65.719,248.122,66.105z"></path>	<g>		<path fill="#FFFFFF" d="M260.592,55.123v-3.877h1.646c0.414,0,0.715,0.036,0.904,0.108c0.186,0.066,0.336,0.189,0.448,0.369   c0.114,0.178,0.171,0.379,0.171,0.612c0,0.29-0.086,0.529-0.256,0.716c-0.173,0.189-0.428,0.311-0.768,0.361   c0.169,0.098,0.309,0.206,0.418,0.325c0.112,0.118,0.261,0.329,0.445,0.629l0.475,0.756h-0.936l-0.566-0.845   c-0.201-0.299-0.339-0.488-0.412-0.568c-0.074-0.08-0.153-0.132-0.236-0.164c-0.081-0.028-0.213-0.042-0.395-0.042h-0.156v1.619   H260.592z M261.375,52.888h0.579c0.375,0,0.607-0.018,0.701-0.049s0.168-0.086,0.221-0.166c0.052-0.076,0.079-0.174,0.079-0.287   c0-0.131-0.035-0.237-0.105-0.316c-0.069-0.08-0.167-0.132-0.295-0.15c-0.062-0.01-0.252-0.016-0.57-0.016h-0.609V52.888z"></path>	</g></g></svg>