<?xml version="1.0" standalone="no"?>
<!DOCTYPE svg PUBLIC "-//W3C//DTD SVG 20010904//EN"
 "http://www.w3.org/TR/2001/REC-SVG-20010904/DTD/svg10.dtd">
<svg version="1.0" xmlns="http://www.w3.org/2000/svg"
 width="1557.000000pt" height="621.000000pt" viewBox="0 0 1557.000000 621.000000"
 preserveAspectRatio="xMidYMid meet">
<metadata>
Created by potrace 1.15, written by Peter Selinger 2001-2017
</metadata>
<g transform="translate(0.000000,621.000000) scale(0.100000,-0.100000)"
fill="#000000" stroke="none">
<path d="M7805 5793 c-38 -2 -76 -9 -84 -16 -12 -10 -13 -9 -7 3 4 8 -14 -7
-39 -35 -26 -27 -44 -43 -40 -35 4 8 -16 -10 -45 -40 -29 -30 -47 -46 -40 -35
7 11 -11 -5 -40 -35 -28 -30 -49 -48 -45 -40 4 8 -15 -7 -40 -35 -26 -27 -44
-43 -40 -35 4 8 -16 -10 -45 -40 -29 -30 -47 -46 -40 -35 7 11 -9 -2 -35 -30
-26 -27 -44 -43 -40 -35 4 8 -17 -10 -45 -40 -28 -30 -49 -48 -45 -40 3 8 -10
-3 -30 -25 -20 -22 -41 -39 -47 -37 -5 1 -7 -2 -3 -8 3 -5 15 -10 26 -10 10 0
19 -5 19 -11 0 -7 12 -9 35 -5 24 5 35 3 35 -5 0 -6 8 -9 20 -6 11 3 20 1 20
-5 0 -6 7 -8 15 -4 8 3 15 1 15 -5 0 -6 7 -8 16 -5 8 3 13 2 10 -3 -7 -10 22
-24 34 -16 4 3 22 -10 40 -28 18 -17 29 -25 25 -17 -4 8 8 0 28 -19 20 -19 35
-37 34 -42 -1 -4 7 -15 18 -24 11 -9 14 -13 7 -10 -11 6 -12 3 -3 -14 7 -11
16 -21 22 -21 6 0 7 -4 4 -10 -3 -5 -2 -10 4 -10 6 0 7 -7 4 -17 -5 -12 -3
-14 7 -8 9 6 11 4 5 -5 -4 -7 -2 -16 5 -20 7 -5 13 -22 12 -39 0 -17 4 -31 9
-31 5 0 7 -11 3 -25 -3 -14 -2 -25 2 -25 5 0 8 -158 6 -351 -2 -246 0 -349 8
-344 7 4 10 -169 9 -582 l-1 -588 -30 -30 c-17 -16 -27 -23 -23 -15 3 8 -3 4
-16 -10 -12 -14 -25 -24 -30 -23 -5 2 -13 -6 -19 -17 -6 -11 -16 -18 -21 -14
-6 3 -19 -3 -30 -15 -12 -12 -26 -18 -36 -14 -11 4 -14 3 -9 -5 5 -8 2 -10 -8
-6 -9 3 -16 2 -16 -3 0 -6 -20 -9 -45 -9 -25 1 -45 4 -45 9 0 4 -5 6 -12 5
-13 -3 -60 61 -53 73 3 4 1 10 -4 13 -5 3 -7 15 -4 26 3 11 1 20 -3 20 -5 0
-8 390 -6 885 l3 884 -538 3 c-296 2 -541 -1 -544 -5 -3 -5 -18 -5 -32 -1 -18
4 -27 2 -27 -6 0 -9 -10 -11 -30 -6 -17 3 -30 1 -30 -4 0 -6 -11 -8 -25 -4
-16 4 -25 2 -25 -6 0 -7 -8 -9 -20 -5 -12 4 -20 2 -20 -5 0 -7 -8 -9 -20 -5
-12 4 -20 2 -20 -5 0 -7 -8 -9 -21 -5 -14 5 -19 4 -15 -4 5 -7 1 -9 -8 -5 -9
4 -16 1 -16 -6 0 -7 -7 -10 -15 -6 -8 3 -15 0 -15 -5 0 -6 -9 -9 -20 -6 -11 3
-26 0 -33 -6 -6 -7 -18 -12 -24 -13 -30 -2 -34 -5 -28 -14 5 -9 -15 -15 -37
-11 -5 0 -8 -4 -8 -10 0 -5 -4 -7 -10 -4 -12 8 -68 -21 -98 -51 -14 -14 -30
-20 -39 -17 -10 4 -14 2 -10 -4 6 -10 -12 -23 -29 -22 -3 0 -12 -8 -20 -18 -7
-10 -14 -13 -14 -8 0 6 -5 3 -10 -5 -5 -8 -13 -15 -19 -15 -5 0 -19 -11 -31
-25 -12 -14 -18 -18 -15 -10 4 8 -12 -5 -35 -30 -23 -25 -36 -36 -29 -25 7 11
-13 -5 -44 -35 -57 -55 -72 -73 -39 -50 9 7 1 -2 -18 -21 -19 -18 -35 -37 -35
-42 0 -4 -11 -17 -25 -28 -14 -12 -18 -18 -10 -14 10 4 9 1 -2 -8 -10 -8 -18
-19 -18 -26 0 -6 -5 -11 -10 -11 -6 0 -9 -3 -8 -7 3 -17 -15 -43 -25 -36 -6 4
-8 0 -4 -10 3 -8 -1 -21 -8 -27 -8 -7 -12 -16 -10 -21 3 -4 -4 -17 -16 -28
-12 -11 -18 -24 -14 -30 3 -6 2 -11 -2 -11 -5 0 -9 -10 -10 -22 -1 -11 -8 -25
-15 -29 -7 -5 -9 -9 -3 -9 5 0 4 -5 -2 -11 -6 -6 -9 -18 -6 -25 3 -8 0 -14 -6
-14 -6 0 -8 -7 -5 -15 4 -8 2 -15 -4 -15 -6 0 -8 -10 -4 -22 4 -16 2 -19 -8
-13 -10 6 -12 3 -8 -13 4 -12 2 -22 -4 -22 -6 0 -7 -11 -4 -25 4 -15 2 -25 -5
-25 -7 0 -8 -11 -4 -30 4 -20 3 -30 -5 -30 -8 0 -10 -15 -5 -50 4 -30 3 -50
-3 -50 -5 0 -10 -52 -10 -125 0 -78 3 -125 10 -125 6 0 7 -18 3 -50 -5 -36 -4
-50 5 -50 9 0 10 -11 6 -35 -5 -23 -3 -35 4 -35 8 0 9 -11 5 -30 -4 -20 -3
-30 5 -30 8 0 10 -9 6 -25 -4 -16 -2 -25 5 -25 6 0 9 -7 5 -15 -3 -8 -1 -15 4
-15 6 0 10 -7 10 -15 0 -14 -12 -19 -32 -16 -5 0 -8 -4 -8 -10 0 -6 -7 -9 -15
-5 -8 3 -15 1 -15 -5 0 -5 -11 -7 -25 -3 -15 4 -25 2 -25 -5 0 -6 -14 -11 -31
-11 -20 0 -28 4 -23 12 5 8 0 9 -14 6 -12 -4 -22 -2 -22 4 0 6 -7 7 -16 4 -8
-3 -13 -2 -10 2 3 4 -4 14 -16 21 -16 10 -19 10 -12 -1 4 -7 -2 -4 -14 6 -23
20 -29 32 -11 21 6 -4 5 2 -2 13 -7 12 -16 19 -20 16 -8 -4 -25 35 -21 49 1 4
-3 7 -9 7 -6 0 -8 9 -4 21 5 14 4 19 -4 15 -7 -5 -9 -1 -5 8 4 9 1 16 -6 16
-8 0 -10 9 -6 25 4 14 2 25 -4 25 -5 0 -7 13 -3 30 3 18 1 30 -5 30 -7 0 -9
33 -5 104 4 72 2 105 -6 110 -14 9 -15 196 -1 196 13 0 13 127 0 135 -7 4 -8
252 -3 746 5 600 4 739 -7 739 -9 0 -11 9 -6 30 3 18 1 30 -5 30 -6 0 -8 9 -4
19 3 11 1 22 -5 26 -6 3 -8 11 -5 16 4 5 2 9 -3 9 -6 0 -16 21 -23 46 -9 29
-24 54 -42 66 -15 11 -25 23 -22 28 3 4 -2 13 -10 20 -8 7 -15 9 -15 4 -1 -5
-10 2 -21 16 -12 14 -24 25 -28 26 -18 2 -40 17 -36 24 5 8 -33 26 -47 22 -5
-1 -8 3 -8 9 0 6 -7 8 -16 5 -10 -4 -13 -2 -8 6 5 8 2 9 -9 5 -10 -4 -17 -2
-17 4 0 6 -7 8 -16 5 -9 -4 -13 -2 -8 5 4 8 -1 9 -15 4 -13 -4 -21 -2 -21 5 0
7 -8 10 -20 7 -11 -3 -20 -1 -20 4 0 6 -15 7 -35 3 -23 -4 -35 -2 -35 5 0 8
-50 11 -161 11 -154 0 -162 -1 -181 -22 -11 -13 -17 -16 -13 -8 4 8 -15 -7
-40 -35 -26 -27 -44 -43 -40 -35 4 8 -16 -10 -45 -40 -29 -30 -47 -46 -40 -35
7 11 -11 -5 -40 -35 -29 -30 -47 -46 -40 -35 7 11 -11 -5 -40 -35 -28 -30 -49
-48 -45 -40 4 8 -16 -10 -45 -40 -29 -30 -47 -46 -40 -35 7 11 -8 -2 -34 -30
-26 -27 -45 -43 -41 -35 4 8 -6 2 -21 -15 l-27 -30 7 48 c4 28 3 47 -2 47 -6
0 -8 9 -5 20 3 12 0 20 -7 20 -7 0 -9 8 -5 19 3 11 0 23 -7 28 -12 7 -40 58
-42 74 -1 4 -12 17 -26 29 -14 12 -18 18 -10 14 8 -4 0 9 -19 29 -19 20 -37
35 -41 34 -4 -1 -16 8 -26 21 -17 20 -34 28 -67 31 -5 1 -5 6 -2 12 4 6 1 9
-6 8 -22 -4 -69 12 -69 23 0 5 -4 6 -10 3 -5 -3 -10 -1 -10 5 0 7 -8 9 -20 5
-12 -4 -20 -2 -20 5 0 7 -7 10 -15 6 -8 -3 -15 -1 -15 5 0 6 -14 7 -35 3 -23
-4 -35 -2 -35 5 0 8 -52 11 -170 11 l-170 0 -31 -32 c-18 -18 -26 -24 -19 -13
7 11 -11 -5 -40 -35 -29 -30 -49 -48 -45 -40 4 8 -14 -7 -40 -35 -25 -27 -43
-43 -40 -35 4 8 -14 -7 -40 -35 -25 -27 -44 -43 -40 -35 4 8 -17 -10 -45 -40
-29 -30 -47 -46 -40 -35 7 11 -9 -2 -35 -30 -26 -27 -44 -43 -40 -35 3 8 -15
-7 -40 -35 -26 -27 -44 -45 -41 -38 3 6 0 18 -8 26 -9 8 -12 24 -9 36 3 13 1
21 -7 21 -7 0 -10 7 -7 15 4 8 2 17 -4 20 -5 4 -7 11 -4 16 4 5 1 9 -4 9 -6 0
-11 11 -11 25 0 14 -6 28 -14 31 -8 3 -17 15 -20 27 -3 12 -22 38 -43 57 -20
19 -31 26 -24 15 8 -11 0 -5 -18 13 -17 17 -35 32 -41 32 -5 0 -10 4 -10 10 0
5 -3 9 -7 8 -14 -3 -63 25 -63 35 0 6 -3 8 -6 4 -4 -3 -13 0 -20 8 -8 8 -21
12 -29 9 -8 -4 -15 -1 -15 6 0 7 -7 10 -16 6 -9 -4 -13 -2 -8 5 4 8 -1 9 -15
4 -13 -4 -21 -2 -21 5 0 7 -8 9 -20 5 -11 -4 -20 -2 -20 4 0 6 -12 8 -30 5
-19 -4 -30 -2 -30 5 0 8 -49 11 -162 11 l-163 0 -48 -52 c-27 -29 -46 -46 -42
-38 4 8 -14 -7 -40 -35 -25 -27 -44 -43 -40 -35 4 8 -15 -7 -40 -35 -26 -27
-44 -43 -40 -35 4 8 -17 -10 -45 -40 -28 -30 -49 -48 -45 -40 4 8 -14 -7 -40
-35 -25 -27 -43 -43 -40 -35 4 8 -14 -7 -40 -35 -25 -27 -43 -43 -40 -35 4 8
-16 -10 -45 -40 -29 -30 -47 -46 -40 -35 7 11 1 8 -13 -7 -14 -16 -31 -28 -37
-28 -6 0 -9 -4 -6 -9 3 -5 -2 -15 -11 -22 -14 -12 -16 -12 -9 1 7 11 5 11 -9
-2 -28 -26 -9 -41 46 -36 28 3 49 1 49 -5 0 -5 11 -6 25 -3 16 4 25 2 25 -5 0
-6 7 -8 16 -5 9 4 13 2 8 -5 -4 -7 0 -9 14 -5 13 5 22 1 26 -10 4 -9 12 -14
22 -10 8 3 12 2 9 -4 -5 -9 1 -12 21 -9 3 0 12 -8 21 -18 9 -11 12 -12 8 -3
-4 8 4 3 17 -11 13 -15 37 -39 53 -54 17 -14 23 -24 15 -20 -8 4 -6 -1 5 -10
11 -9 19 -23 17 -31 -2 -8 4 -17 12 -20 9 -3 12 -12 9 -21 -4 -11 -2 -14 5 -9
8 5 10 2 6 -8 -3 -9 -1 -16 6 -16 6 0 8 -4 5 -10 -3 -5 -1 -10 5 -10 7 0 9 -8
5 -20 -4 -12 -2 -20 5 -20 7 0 9 -8 5 -20 -3 -11 -2 -20 3 -20 6 0 8 -17 5
-40 -3 -22 -2 -40 3 -40 5 0 9 -509 9 -1187 l0 -1188 515 0 515 0 3 1366 2
1367 46 7 c33 5 49 3 54 -6 5 -6 17 -9 29 -6 12 3 21 1 21 -5 0 -6 7 -7 16 -4
8 3 27 0 42 -8 43 -23 122 -104 122 -126 0 -11 5 -20 11 -20 6 0 8 -9 4 -20
-3 -11 -3 -20 2 -20 4 0 7 -214 5 -476 -2 -327 1 -474 8 -469 7 4 9 -240 8
-789 l-3 -796 505 0 505 0 0 1367 0 1368 28 3 c16 2 27 -1 27 -9 0 -8 14 -10
51 -5 38 5 49 4 43 -5 -5 -9 -1 -10 14 -7 12 4 22 2 22 -4 0 -5 10 -6 21 -3
15 5 19 4 15 -4 -4 -6 -1 -12 6 -13 7 0 18 -2 23 -2 15 -2 95 -85 96 -99 1 -7
1 -18 0 -24 -1 -7 2 -13 8 -13 5 0 7 -9 4 -20 -3 -11 0 -20 6 -20 9 0 11 -240
9 -955 -2 -525 1 -955 5 -955 5 0 6 -18 2 -40 -5 -28 -3 -40 5 -40 8 0 9 -10
5 -30 -4 -18 -2 -30 3 -30 6 0 8 -9 5 -20 -3 -12 0 -20 7 -20 7 0 9 -8 5 -20
-4 -11 -2 -20 4 -20 6 0 8 -7 5 -15 -4 -8 -1 -15 5 -15 6 0 8 -7 4 -17 -4 -11
-3 -14 5 -9 8 5 10 2 6 -8 -3 -9 -1 -16 6 -16 6 0 9 -4 5 -9 -7 -12 15 -62 25
-56 7 4 23 -24 20 -34 -1 -2 5 -8 14 -13 9 -5 14 -13 11 -18 -3 -4 6 -15 20
-24 14 -9 24 -22 22 -28 -1 -7 4 -12 11 -13 8 0 25 -13 39 -30 14 -16 22 -23
18 -15 -3 8 1 6 9 -4 9 -11 24 -21 33 -22 10 -2 19 -8 21 -14 2 -5 8 -8 13 -4
5 3 9 0 9 -6 0 -6 4 -8 10 -5 6 3 10 2 10 -3 0 -5 12 -9 26 -9 15 0 30 -6 34
-13 4 -7 15 -10 24 -7 9 4 16 2 16 -4 0 -6 14 -7 35 -3 23 4 35 2 35 -5 0 -7
27 -11 75 -11 49 0 75 4 75 11 0 8 13 9 40 5 26 -4 40 -2 40 5 0 6 8 8 20 4
12 -4 20 -2 20 5 0 6 5 10 12 8 6 -2 25 10 41 26 16 17 24 22 17 11 -7 -11 11
5 40 35 28 30 49 48 45 40 -4 -8 14 8 40 35 25 28 43 43 40 35 -4 -8 14 8 40
35 25 28 44 43 40 35 -4 -8 15 8 40 35 26 28 44 43 40 35 -4 -8 17 10 45 40
29 30 47 46 40 35 -7 -11 11 5 40 35 29 30 47 46 40 35 -7 -11 10 5 39 35 29
30 49 48 45 40 -7 -13 -6 -13 10 0 20 15 49 23 41 10 -3 -4 2 -11 11 -14 8 -3
13 -10 10 -15 -3 -5 1 -12 9 -15 8 -3 15 -9 14 -13 -3 -20 2 -33 13 -30 7 1
12 -3 13 -9 0 -7 11 -22 25 -34 14 -12 18 -19 10 -15 -8 4 5 -11 30 -33 25
-22 45 -45 45 -50 0 -13 14 -27 27 -27 5 0 28 -20 50 -45 22 -25 37 -38 33
-30 -4 8 6 2 20 -15 15 -16 24 -23 20 -15 -3 8 2 5 13 -7 11 -12 22 -19 26
-16 3 3 8 -2 12 -11 3 -9 9 -14 13 -11 4 2 22 -9 40 -25 18 -17 43 -30 56 -30
12 0 26 -7 29 -16 4 -9 13 -14 21 -10 8 3 15 1 15 -5 0 -6 7 -8 16 -5 9 4 13
2 8 -5 -4 -8 1 -9 15 -4 13 4 21 2 21 -5 0 -7 7 -9 16 -6 10 4 13 2 8 -6 -5
-7 1 -9 20 -4 16 4 26 2 26 -5 0 -7 9 -9 25 -5 15 4 25 2 25 -4 0 -6 25 -9 66
-8 66 3 67 4 122 58 30 30 47 44 37 30 -10 -14 28 22 85 80 56 58 95 94 85 80
-10 -14 14 8 53 49 63 67 101 86 85 44 -4 -10 -2 -14 4 -10 11 7 23 -12 29
-43 2 -8 16 -25 31 -37 15 -13 28 -26 28 -30 0 -5 29 -37 64 -72 35 -35 61
-58 57 -50 -4 8 2 3 15 -11 12 -14 26 -24 30 -23 5 2 9 -2 9 -7 0 -5 3 -9 8
-8 4 1 27 -9 52 -22 25 -13 48 -23 53 -22 4 1 7 -3 7 -9 0 -6 9 -8 20 -4 12 4
20 2 20 -5 0 -7 8 -9 20 -5 11 3 20 3 20 -2 0 -4 43 -8 95 -8 52 0 95 4 95 8
0 5 9 5 20 2 12 -4 20 -2 20 5 0 7 8 9 21 5 16 -6 28 1 51 29 16 20 34 35 39
33 6 -1 55 45 111 103 55 58 95 96 88 85 -7 -11 31 25 85 80 54 55 90 89 80
75 -10 -14 18 12 61 57 l79 83 0 -263 0 -262 465 0 465 0 3 821 2 821 62 7
c40 4 64 2 68 -5 4 -6 18 -7 33 -3 18 4 27 2 27 -6 0 -7 8 -10 20 -7 12 3 18
1 14 -5 -4 -6 1 -8 14 -4 13 5 22 1 26 -10 4 -9 9 -15 12 -12 5 6 58 -43 61
-57 1 -4 7 -11 13 -15 7 -4 12 -21 12 -36 0 -16 5 -34 10 -41 6 -7 8 -187 6
-477 -2 -257 1 -466 5 -466 5 0 6 -13 2 -29 -3 -16 -2 -32 4 -35 6 -4 8 -13 4
-21 -3 -8 0 -15 6 -15 7 0 11 -6 10 -12 -1 -7 6 -31 16 -53 16 -37 22 -56 24
-78 1 -5 5 -5 11 -2 5 3 7 0 4 -8 -3 -9 4 -22 18 -31 13 -9 23 -20 23 -24 0
-4 22 -29 50 -57 27 -27 45 -43 41 -35 -4 8 5 2 19 -15 15 -16 24 -23 20 -15
-3 8 1 6 10 -5 9 -11 21 -20 28 -21 21 -2 52 -17 63 -32 6 -8 16 -12 22 -8 6
3 13 2 17 -4 4 -6 11 -8 16 -5 5 4 9 1 9 -5 0 -7 8 -9 20 -5 12 4 20 2 20 -5
0 -7 8 -9 20 -5 12 4 20 2 20 -5 0 -8 9 -10 25 -6 14 4 25 3 25 -1 0 -5 65 -8
144 -8 79 0 142 3 140 6 -2 3 13 21 34 40 25 24 31 26 18 9 -10 -14 25 20 79
75 54 55 92 91 85 80 -7 -11 29 23 80 75 51 52 85 84 75 70 -10 -14 22 16 70
65 48 50 79 79 69 65 -17 -22 -15 -21 17 5 20 17 34 34 31 39 -3 5 0 6 7 2 6
-4 9 -11 6 -16 -3 -4 6 -15 20 -24 14 -9 24 -20 23 -24 -1 -4 43 -52 97 -106
54 -55 95 -93 91 -85 -4 8 7 -2 24 -21 17 -19 29 -28 25 -20 -4 8 3 4 14 -9
12 -13 21 -19 21 -15 0 5 7 0 15 -10 8 -11 15 -16 15 -11 0 4 11 -4 25 -19 14
-15 30 -24 35 -21 6 3 10 1 10 -4 0 -14 98 -64 110 -56 4 3 15 -2 24 -11 9 -8
20 -12 26 -9 5 3 10 1 10 -5 0 -7 7 -9 16 -6 10 4 13 2 8 -6 -5 -7 0 -9 14 -6
12 4 22 2 22 -4 0 -6 7 -8 15 -4 8 3 15 0 15 -5 0 -6 9 -9 20 -6 11 3 20 1 20
-5 0 -6 11 -7 25 -4 16 4 25 2 25 -5 0 -7 11 -9 30 -5 17 3 30 2 30 -2 0 -4
72 -7 160 -7 88 0 160 3 160 8 0 4 11 5 25 1 16 -4 25 -2 25 6 0 8 9 10 25 6
14 -4 25 -2 25 3 0 5 9 7 20 4 11 -3 20 0 20 6 0 5 7 8 15 5 8 -4 15 -1 15 5
0 6 7 8 15 5 8 -4 15 -1 15 6 0 6 5 8 10 5 6 -3 10 -1 10 5 0 7 8 9 19 5 11
-3 23 0 28 7 4 7 32 25 60 39 29 15 50 22 47 17 -4 -6 3 -5 15 1 11 7 21 16
21 21 0 6 3 9 8 9 19 -3 33 2 28 10 -5 8 17 23 37 25 4 1 12 8 17 16 5 8 14
16 20 16 5 1 15 2 21 3 5 0 8 5 5 10 -3 5 2 15 11 22 14 12 16 12 9 -1 -4 -8
12 7 36 34 25 27 67 69 94 94 27 24 42 41 34 37 -8 -4 1 8 20 25 19 17 28 29
20 25 -8 -4 -4 3 9 14 13 12 19 21 15 21 -5 0 2 10 16 21 14 11 18 18 10 14
-10 -4 -9 -2 2 8 10 8 16 16 13 19 -2 2 9 19 26 37 17 19 28 39 25 47 -3 7 2
18 9 24 8 7 12 16 10 21 -3 4 4 17 16 28 12 11 18 24 14 30 -3 6 -1 11 4 11 6
0 11 11 11 25 0 14 5 25 11 25 6 0 8 7 5 16 -4 9 -2 13 5 8 8 -4 9 1 4 15 -4
13 -2 21 5 21 6 0 9 4 5 9 -3 5 -1 12 4 16 6 3 8 12 4 20 -3 8 0 15 7 15 7 0
10 7 6 15 -3 8 -1 15 5 15 6 0 8 9 4 20 -4 12 -2 20 5 20 7 0 10 8 7 20 -3 11
-1 20 5 20 5 0 7 12 3 30 -4 19 -3 30 4 30 7 0 9 10 5 25 -4 17 -2 25 6 25 9
0 11 11 6 40 -4 26 -2 40 5 40 7 0 8 18 4 55 -5 38 -4 55 4 55 8 0 11 42 11
135 0 91 -4 135 -11 135 -8 0 -9 19 -4 60 5 41 3 60 -4 60 -7 0 -8 16 -4 45 4
31 2 45 -6 45 -6 0 -11 3 -11 8 0 4 43 7 95 7 52 0 95 -4 95 -8 0 -4 6 -7 13
-6 25 3 38 -1 32 -11 -3 -5 1 -10 9 -10 18 0 35 -29 29 -47 -3 -7 0 -13 6 -13
9 0 11 -161 9 -590 -2 -325 0 -590 5 -590 4 0 5 -11 1 -25 -4 -16 -2 -25 6
-25 7 0 9 -8 5 -20 -4 -11 -2 -20 4 -20 6 0 8 -7 5 -15 -4 -8 -1 -15 6 -15 7
0 10 -7 6 -15 -7 -20 4 -46 17 -38 6 4 8 0 4 -11 -8 -19 28 -96 44 -96 6 0 7
-5 4 -10 -4 -6 11 -27 32 -47 21 -20 31 -32 23 -28 -8 4 7 -15 35 -43 27 -28
53 -49 57 -46 4 3 12 -5 18 -16 6 -11 15 -18 19 -15 5 3 12 -2 15 -11 4 -9 13
-14 22 -10 8 3 13 2 10 -3 -7 -11 22 -23 36 -14 7 4 8 1 3 -7 -6 -10 -4 -12 8
-7 10 4 17 2 17 -4 0 -6 7 -9 15 -5 8 3 15 1 15 -5 0 -6 9 -8 20 -4 12 4 20 2
20 -5 0 -6 8 -10 18 -9 9 1 19 1 22 0 18 -6 270 -5 270 2 0 4 6 7 13 7 7 0 26
13 42 30 15 16 31 27 36 25 4 -3 51 41 105 97 53 57 91 94 83 83 -13 -20 -13
-20 8 -1 13 10 20 23 16 29 -3 5 -1 7 4 4 6 -4 36 22 68 58 31 36 60 63 65 60
4 -2 16 5 26 18 l19 22 -25 -20 -25 -20 19 22 c10 12 21 22 25 21 3 0 8 1 11
2 21 8 39 7 34 -2 -4 -6 2 -17 12 -25 10 -8 18 -16 17 -18 -8 -14 2 -30 45
-72 26 -26 39 -41 30 -34 -32 24 -19 6 28 -39 26 -25 44 -38 40 -30 -4 8 4 3
17 -12 14 -15 27 -24 30 -22 3 3 10 -4 17 -15 6 -12 15 -19 21 -16 5 4 9 2 9
-4 0 -6 10 -15 21 -22 17 -9 20 -8 14 3 -4 7 2 3 14 -9 11 -12 27 -20 35 -17
7 3 16 -2 19 -10 4 -9 14 -12 26 -9 13 3 21 1 21 -6 0 -7 5 -9 10 -6 6 3 10 1
10 -5 0 -7 8 -9 20 -5 12 4 20 2 20 -5 0 -7 7 -10 15 -6 8 3 15 1 15 -5 0 -7
10 -9 25 -5 16 4 25 2 25 -5 0 -7 9 -9 25 -5 16 4 25 2 25 -5 0 -8 14 -10 45
-6 27 4 45 3 45 -3 0 -6 18 -10 39 -10 36 0 45 6 111 77 40 43 69 71 65 63 -4
-8 21 14 55 50 34 36 57 56 50 45 -7 -11 20 14 60 55 40 41 67 66 60 55 -7
-11 24 18 69 65 44 47 81 89 81 94 0 5 -31 6 -70 4 -43 -3 -70 -1 -70 5 0 5
-9 7 -20 4 -12 -3 -18 -1 -14 5 4 6 -1 8 -14 4 -13 -5 -22 -1 -26 10 -4 9 -12
14 -22 10 -8 -3 -12 -2 -9 4 3 6 1 10 -4 10 -6 0 -14 0 -18 0 -14 1 -72 63
-67 71 2 5 -4 17 -14 27 -10 10 -16 24 -14 32 3 7 0 10 -7 6 -7 -5 -9 -1 -5 8
3 9 1 16 -6 16 -7 0 -9 8 -5 21 4 13 3 19 -2 16 -6 -4 -8 4 -5 18 2 14 0 25
-4 25 -5 0 -8 381 -6 862 l3 863 -471 -3 -470 -2 0 -946 c0 -520 -2 -950 -5
-955 -4 -5 -10 -7 -15 -4 -5 3 -17 -6 -26 -20 -9 -13 -20 -23 -24 -20 -4 2
-16 -3 -26 -11 -10 -9 -13 -12 -5 -8 9 4 12 3 7 -4 -4 -6 -14 -8 -23 -5 -11 4
-14 3 -9 -5 5 -8 1 -10 -10 -5 -12 4 -15 3 -10 -5 5 -8 2 -10 -8 -6 -9 3 -16
2 -16 -3 0 -6 -18 -7 -45 -3 -25 4 -45 5 -45 2 0 -3 -9 3 -20 13 -11 10 -20
29 -20 42 0 12 -5 23 -10 23 -6 0 -8 11 -4 25 3 14 2 25 -2 25 -5 0 -8 341 -6
760 2 567 -1 760 -9 760 -8 0 -10 12 -6 35 3 19 2 35 -3 35 -5 0 -7 7 -4 15 4
8 1 15 -6 15 -6 0 -9 8 -6 18 4 12 -1 25 -13 36 -11 10 -17 24 -15 31 3 7 -4
19 -16 25 -12 6 -20 14 -17 16 5 5 -115 128 -126 128 -4 1 -19 11 -32 24 -14
13 -28 21 -33 18 -5 -3 -18 4 -28 15 -10 11 -24 17 -31 15 -7 -3 -13 -1 -13 5
0 6 -7 8 -16 5 -9 -4 -13 -2 -8 5 4 8 -1 9 -15 4 -13 -4 -21 -2 -21 5 0 7 -7
10 -15 6 -8 -3 -15 -1 -15 5 0 7 -12 8 -30 4 -21 -5 -30 -3 -30 6 0 7 -16 -5
-36 -27 -19 -21 -32 -32 -29 -24 4 8 -16 -10 -45 -40 -28 -30 -48 -48 -45 -40
4 8 -14 -7 -40 -35 -25 -27 -44 -43 -40 -35 4 8 -17 -10 -45 -40 -29 -30 -47
-46 -40 -35 7 11 -11 -5 -40 -35 -28 -30 -49 -48 -45 -40 4 8 -14 -7 -40 -35
-25 -27 -44 -43 -40 -35 4 8 -17 -10 -45 -40 -29 -30 -47 -46 -40 -35 7 11 -9
-2 -35 -30 -26 -27 -44 -43 -40 -35 4 8 -17 -11 -48 -44 -50 -53 -85 -68 -70
-31 3 8 0 15 -6 15 -6 0 -8 7 -5 15 4 8 1 15 -6 15 -6 0 -8 5 -5 10 3 6 1 10
-6 10 -6 0 -9 8 -6 20 3 11 0 26 -7 33 -7 7 -11 18 -8 26 3 8 0 11 -7 7 -7 -5
-9 -1 -5 8 3 9 1 16 -6 16 -6 0 -8 5 -5 11 8 12 -23 49 -42 49 -7 0 -13 5 -13
11 0 6 -7 9 -15 5 -8 -3 -15 -1 -15 5 0 6 -9 8 -20 4 -11 -4 -20 -2 -20 4 0 6
-7 8 -15 5 -8 -4 -15 -1 -15 6 0 7 -8 9 -20 5 -11 -4 -20 -2 -20 4 0 6 -7 8
-15 5 -8 -4 -15 -1 -15 6 0 7 -7 10 -15 6 -8 -3 -15 -1 -15 5 0 6 -9 8 -20 4
-12 -4 -20 -2 -20 5 0 7 -7 10 -15 6 -8 -3 -15 -1 -15 5 0 6 -9 8 -20 4 -12
-4 -20 -2 -20 5 0 7 -7 9 -16 6 -10 -4 -13 -2 -8 6 5 7 -1 9 -20 4 -15 -4 -26
-2 -26 3 0 6 -7 8 -15 5 -8 -4 -15 -1 -15 6 0 7 -8 9 -21 5 -16 -5 -19 -4 -14
5 5 9 2 10 -14 5 -12 -4 -21 -2 -21 4 0 6 -7 8 -15 5 -8 -4 -15 -1 -15 6 0 7
-8 9 -20 5 -12 -4 -20 -2 -20 5 0 7 -7 10 -15 6 -8 -3 -15 -1 -15 5 0 6 -6 9
-14 6 -8 -3 -17 -3 -20 0 -3 4 -18 8 -33 9 -14 2 -29 8 -33 14 -4 6 -14 8 -23
4 -10 -4 -17 -1 -17 6 0 7 -7 10 -15 6 -8 -3 -15 -1 -15 5 0 6 -9 8 -20 4 -11
-4 -20 -2 -20 4 0 6 -7 8 -15 5 -8 -4 -15 -1 -15 6 0 7 -7 10 -15 6 -8 -3 -15
-1 -15 5 0 6 -9 8 -20 4 -12 -4 -20 -2 -20 5 0 7 -7 10 -15 6 -8 -3 -15 -2
-15 3 0 4 -14 8 -31 8 -17 0 -34 5 -38 12 -4 6 -15 9 -24 5 -10 -3 -17 -1 -17
5 0 6 -7 8 -15 5 -8 -4 -15 -1 -15 6 0 7 -8 9 -20 5 -11 -4 -20 -2 -20 4 0 6
-7 8 -15 5 -8 -4 -15 -1 -15 6 0 7 -7 10 -15 6 -8 -3 -15 -1 -15 5 0 6 -9 8
-20 4 -12 -4 -20 -2 -20 5 0 7 -7 10 -15 6 -8 -3 -15 -1 -15 5 0 6 -7 8 -17 5
-9 -4 -20 -1 -24 5 -4 7 -17 9 -33 5 -15 -4 -25 -10 -22 -15 6 -9 -36 -31 -59
-31 -8 0 -18 -7 -23 -16 -5 -9 -12 -15 -15 -15 -20 3 -28 0 -23 -8 5 -8 -11
-19 -32 -21 -4 -1 -11 -8 -15 -16 -5 -8 -12 -12 -17 -9 -4 3 -11 -2 -14 -11
-3 -8 -10 -12 -16 -9 -6 3 -25 -8 -43 -27 -17 -18 -34 -33 -37 -33 -3 0 -21
-16 -39 -35 -19 -19 -28 -26 -21 -15 7 11 -5 2 -26 -20 -22 -23 -59 -60 -84
-84 -25 -23 -38 -40 -30 -36 8 4 2 -6 -15 -21 -16 -15 -30 -31 -30 -36 0 -5
-11 -18 -25 -29 -14 -12 -18 -17 -10 -13 8 5 -2 -9 -23 -29 -20 -21 -37 -42
-37 -47 0 -19 -3 -25 -18 -36 -9 -7 -12 -16 -7 -24 5 -8 4 -11 -3 -6 -9 5 -24
-21 -25 -44 0 -3 -6 -11 -13 -18 -7 -7 -11 -19 -8 -26 3 -7 -2 -16 -11 -20
-10 -3 -15 -12 -11 -21 3 -8 1 -15 -5 -15 -6 0 -8 -7 -5 -16 4 -9 2 -13 -5 -8
-8 4 -9 -1 -4 -15 4 -13 2 -21 -5 -21 -6 0 -8 -4 -5 -10 3 -5 1 -10 -5 -10 -7
0 -10 -7 -6 -15 3 -8 1 -15 -5 -15 -6 0 -9 -7 -6 -15 4 -8 2 -17 -3 -20 -5 -3
-7 -12 -3 -20 3 -8 0 -15 -7 -15 -7 0 -9 -8 -5 -20 4 -12 2 -20 -5 -20 -8 0
-10 -9 -6 -25 4 -15 2 -25 -4 -25 -6 0 -8 -10 -4 -25 4 -17 2 -25 -6 -25 -9 0
-11 -11 -6 -40 4 -25 2 -40 -4 -40 -7 0 -8 -22 -4 -65 5 -46 3 -65 -5 -65 -7
0 -11 -26 -11 -75 0 -50 4 -75 11 -75 9 0 10 -20 5 -70 -4 -44 -2 -70 4 -70 6
0 7 -18 3 -45 -4 -32 -2 -45 6 -45 9 0 11 -10 6 -30 -4 -19 -3 -30 4 -30 6 0
8 -12 5 -30 -4 -20 -2 -30 5 -30 8 0 10 -8 6 -20 -4 -12 -2 -20 5 -20 8 0 10
-9 6 -24 -3 -14 -2 -27 3 -30 5 -3 7 -16 3 -29 -7 -30 -52 -88 -62 -82 -5 3
-13 -3 -19 -12 -6 -10 -11 -14 -11 -9 0 5 -12 -3 -26 -18 -24 -23 -43 -31 -66
-27 -5 0 -8 -2 -8 -7 0 -4 -25 -7 -55 -7 -30 0 -55 4 -55 8 0 5 -4 6 -9 3 -11
-7 -43 28 -34 37 3 4 1 7 -5 7 -6 0 -9 7 -5 17 4 10 2 14 -4 10 -7 -5 -9 0 -6
13 3 11 1 20 -3 20 -5 0 -8 321 -6 725 2 537 0 725 -9 725 -8 0 -9 14 -5 45 5
30 4 45 -4 45 -6 0 -8 10 -4 26 5 21 4 25 -6 19 -9 -6 -11 -4 -5 5 4 7 3 15
-4 19 -6 4 -12 20 -14 37 -5 36 -24 74 -38 74 -6 0 -8 4 -4 9 3 6 -4 15 -15
21 -11 6 -19 14 -17 18 3 12 -65 82 -74 76 -5 -2 -13 5 -19 16 -6 11 -15 18
-19 15 -5 -3 -11 2 -15 10 -3 8 -16 15 -30 15 -13 0 -27 7 -30 16 -4 10 -14
14 -26 11 -12 -3 -18 -1 -14 5 4 6 -1 8 -15 3 -13 -4 -21 -2 -21 5 0 7 -8 9
-20 5 -11 -3 -20 -2 -20 3 0 5 -24 8 -52 6 -49 -2 -56 -6 -102 -56 -27 -29
-43 -44 -36 -33 7 11 -9 -2 -35 -30 -26 -27 -44 -43 -40 -35 4 8 -17 -10 -45
-40 -28 -30 -49 -48 -45 -40 4 8 -15 -7 -40 -35 -26 -27 -44 -43 -40 -35 4 8
-17 -10 -45 -40 -29 -30 -47 -46 -40 -35 7 11 -11 -5 -40 -35 -29 -30 -47 -46
-40 -35 7 11 -11 -5 -40 -35 -28 -30 -49 -48 -45 -40 4 8 -9 -3 -29 -25 -19
-22 -40 -40 -46 -40 -5 0 -28 -20 -51 -45 -22 -25 -37 -38 -33 -30 5 10 0 9
-14 -4 l-22 -19 0 496 c0 353 -3 497 -11 497 -7 0 -9 16 -4 50 5 36 4 50 -5
50 -8 0 -10 9 -6 25 4 16 2 25 -5 25 -7 0 -9 9 -5 25 4 15 2 25 -4 25 -7 0 -9
8 -5 20 4 12 2 20 -5 20 -7 0 -10 7 -6 15 3 8 1 15 -4 15 -8 0 -21 44 -25 83
-1 9 -11 26 -23 37 -12 11 -19 27 -16 35 4 8 -1 17 -10 21 -9 3 -14 10 -11 14
3 5 -3 13 -12 19 -10 6 -13 11 -8 11 6 0 -3 12 -20 26 -16 14 -23 22 -15 18
23 -11 -60 75 -104 107 -21 16 -42 26 -47 23 -5 -3 -9 -1 -9 5 0 16 -56 42
-74 35 -9 -3 -16 -1 -16 6 0 6 -4 8 -10 5 -5 -3 -10 -1 -10 5 0 7 -8 9 -20 5
-12 -4 -20 -2 -20 5 0 8 -9 10 -25 6 -14 -4 -25 -2 -25 4 0 5 -10 9 -22 8 -13
-1 -54 -4 -93 -5z m3622 -1608 c6 -11 9 -23 7 -27 -3 -5 0 -8 7 -8 7 0 9 -3 6
-7 -4 -3 -2 -12 4 -19 6 -7 12 -25 14 -40 1 -14 8 -29 14 -33 7 -5 9 -15 5
-26 -5 -13 -4 -16 4 -11 8 5 10 2 6 -8 -3 -9 -1 -16 6 -16 7 0 9 -8 5 -21 -5
-14 -3 -19 3 -15 6 4 8 -2 5 -14 -3 -12 0 -20 7 -20 7 0 9 -8 5 -20 -4 -12 -2
-20 5 -20 7 0 9 -8 5 -20 -4 -12 -2 -20 5 -20 8 0 10 -9 6 -25 -4 -15 -2 -25
4 -25 7 0 9 -13 4 -35 -4 -23 -2 -35 5 -35 8 0 9 -17 5 -55 -5 -38 -3 -55 5
-55 7 0 11 -22 11 -60 0 -38 -4 -60 -11 -60 -8 0 -10 -17 -6 -55 3 -35 2 -55
-5 -55 -6 0 -8 -13 -4 -35 5 -24 3 -35 -5 -35 -7 0 -9 -9 -5 -25 4 -16 2 -25
-5 -25 -6 0 -9 -9 -6 -20 3 -11 1 -20 -5 -20 -5 0 -6 -9 -3 -20 4 -12 2 -20
-5 -20 -7 0 -10 -8 -7 -20 3 -12 1 -18 -5 -14 -6 4 -8 -1 -3 -15 4 -13 2 -21
-5 -21 -7 0 -9 -7 -6 -16 4 -9 2 -13 -5 -8 -8 4 -9 -1 -4 -15 3 -11 3 -21 -2
-21 -5 0 -9 -9 -10 -21 -1 -12 -10 -27 -19 -33 -9 -7 -14 -18 -10 -24 3 -6 -1
-17 -10 -26 -8 -9 -13 -20 -10 -25 3 -4 -3 -16 -14 -26 -11 -10 -17 -21 -15
-26 3 -4 -4 -17 -16 -28 -12 -11 -19 -24 -15 -29 3 -5 -4 -19 -15 -30 -11 -12
-16 -22 -12 -22 4 0 -1 -7 -11 -15 -11 -8 -16 -15 -10 -15 5 0 0 -7 -10 -15
-11 -8 -16 -15 -10 -15 5 0 -2 -10 -16 -21 -14 -11 -18 -18 -10 -14 8 4 6 -1
-5 -10 -11 -9 -20 -20 -20 -24 0 -5 -11 -19 -25 -31 -14 -12 -18 -18 -10 -14
12 5 11 3 -2 -11 -17 -18 -44 -12 -32 7 4 6 -1 17 -11 24 -10 7 -17 24 -17 38
0 14 -4 23 -9 20 -5 -3 -6 2 -3 10 3 9 1 16 -5 16 -6 0 -8 7 -4 17 4 11 3 14
-6 9 -9 -6 -10 0 -5 20 5 19 4 25 -4 20 -8 -5 -10 -2 -6 8 4 9 1 16 -6 16 -8
0 -10 9 -6 25 4 14 2 25 -3 25 -5 0 -7 9 -4 20 3 12 0 20 -7 20 -8 0 -10 9 -6
25 4 14 2 25 -3 25 -6 0 -7 15 -4 35 4 23 2 35 -6 35 -8 0 -10 15 -5 50 4 28
3 50 -2 50 -5 0 -9 61 -9 135 0 74 4 135 8 135 5 0 6 23 2 50 -5 36 -4 50 5
50 9 0 11 10 7 30 -4 18 -2 30 4 30 7 0 8 11 4 30 -4 20 -3 30 5 30 7 0 9 8 5
20 -4 12 -2 20 5 20 7 0 9 7 6 16 -3 8 0 22 8 29 7 8 11 25 9 39 -3 16 -1 26
6 26 7 0 9 5 6 10 -3 6 -1 10 5 10 7 0 10 7 6 15 -3 8 -1 15 5 15 6 0 8 7 5
16 -4 10 -2 13 6 8 7 -5 9 -2 5 9 -3 9 3 27 14 41 11 14 17 31 13 37 -5 8 -3
9 6 4 10 -6 12 -4 7 9 -4 9 -3 15 2 12 10 -6 24 22 17 33 -3 4 11 25 30 46 31
36 38 48 35 67 0 4 16 24 37 44 20 21 30 34 22 30 -8 -4 2 7 22 24 21 18 35
36 32 41 -3 5 0 8 8 7 7 -2 18 -12 25 -23z m-5235 -659 l-2 -594 -38 -4 c-20
-3 -39 -1 -40 4 -2 4 -8 5 -14 2 -6 -4 -14 -1 -18 5 -4 7 -13 13 -21 15 -29 5
-59 18 -59 25 0 4 -19 23 -42 41 -24 19 -36 25 -28 15 8 -11 0 -7 -18 9 -35
32 -42 46 -14 26 9 -7 -1 4 -23 25 -22 20 -33 34 -25 30 8 -3 6 1 -5 10 -11 9
-19 23 -17 32 2 8 -1 12 -6 9 -9 -6 -39 52 -34 67 1 4 -3 7 -9 7 -5 0 -8 4 -4
9 3 5 1 12 -4 16 -6 3 -7 13 -4 22 4 10 2 14 -4 10 -7 -5 -9 0 -6 13 3 12 0
20 -7 20 -7 0 -10 7 -6 15 3 8 1 15 -5 15 -6 0 -7 14 -3 35 3 20 2 35 -3 35
-6 0 -10 32 -10 70 0 39 4 70 10 70 5 0 7 13 4 30 -4 18 -2 30 4 30 6 0 8 9 4
20 -3 11 -2 20 3 20 5 0 10 12 10 27 0 15 5 29 11 31 6 2 9 8 5 13 -3 5 0 9 5
9 6 0 10 3 9 8 -4 13 13 52 23 52 5 0 8 3 7 8 -3 14 14 42 23 36 5 -3 10 0 10
5 1 6 2 15 3 19 0 5 15 21 31 36 17 15 24 25 18 21 -22 -11 -15 0 24 36 20 18
31 25 23 14 -8 -10 4 -4 28 15 23 18 42 37 42 42 0 4 3 7 8 7 19 -3 33 2 27
11 -4 6 1 7 11 3 12 -4 15 -3 10 5 -5 8 -2 10 8 6 9 -3 16 -1 16 6 0 6 5 8 10
5 6 -3 10 -1 10 5 0 6 10 8 25 4 15 -4 25 -2 25 5 0 6 6 11 13 11 9 0 11 -124
9 -594z"/>
<path d="M3549 1673 c-1 -4 -1 -11 0 -15 0 -5 -4 -8 -10 -8 -6 0 -9 -7 -5 -15
3 -8 1 -15 -5 -15 -6 0 -9 -7 -5 -15 3 -8 1 -15 -5 -15 -6 0 -9 -7 -5 -15 3
-8 1 -15 -5 -15 -6 0 -8 -9 -4 -20 4 -12 2 -20 -5 -20 -6 0 -8 -4 -5 -10 3 -5
1 -10 -5 -10 -7 0 -9 -8 -5 -20 4 -12 2 -20 -5 -20 -6 0 -9 -4 -5 -9 3 -5 1
-12 -4 -16 -6 -3 -8 -12 -4 -20 3 -8 0 -15 -7 -15 -6 0 -9 -4 -5 -9 3 -5 1
-12 -4 -16 -6 -3 -8 -12 -4 -20 3 -8 0 -15 -7 -15 -7 0 -10 -7 -6 -16 3 -8 2
-12 -3 -9 -6 3 -9 -9 -9 -26 1 -17 -5 -34 -12 -39 -7 -4 -9 -13 -6 -19 4 -6 2
-11 -4 -11 -6 0 -10 -8 -8 -17 3 -17 -15 -18 -252 -20 -140 -2 -259 -3 -264
-3 -5 0 -3 -7 4 -15 7 -8 16 -12 21 -10 4 3 13 -4 19 -15 6 -11 14 -19 18 -18
4 2 19 -10 35 -25 15 -16 31 -25 37 -22 5 3 14 -4 20 -15 6 -11 14 -19 18 -18
4 2 19 -10 35 -25 15 -16 31 -25 37 -22 5 3 14 -4 20 -15 6 -11 14 -19 18 -18
4 2 19 -10 35 -25 15 -16 31 -25 37 -22 5 3 14 -4 20 -15 6 -11 15 -19 21 -17
6 1 13 -6 14 -16 2 -10 -1 -14 -7 -10 -7 4 -9 -2 -6 -15 4 -12 2 -22 -4 -22
-6 0 -8 -7 -4 -15 3 -8 1 -15 -5 -15 -6 0 -9 -7 -6 -15 4 -8 2 -17 -3 -20 -5
-3 -7 -12 -3 -20 3 -8 0 -15 -6 -15 -6 0 -8 -7 -5 -15 4 -8 1 -15 -5 -15 -6 0
-8 -7 -5 -15 4 -8 1 -15 -6 -15 -7 0 -10 -7 -6 -16 4 -9 2 -13 -5 -8 -8 4 -9
-1 -4 -15 4 -13 2 -21 -5 -21 -7 0 -9 -7 -6 -16 4 -10 2 -13 -6 -8 -8 5 -9 2
-5 -10 4 -10 1 -24 -7 -32 -8 -7 -12 -23 -9 -34 3 -11 1 -20 -5 -20 -5 0 -9
-12 -9 -26 0 -15 -6 -30 -14 -34 -10 -7 -10 -11 1 -25 13 -16 15 -16 27 2 8
10 17 18 21 18 4 0 22 15 41 32 19 18 38 30 42 28 4 -3 10 2 13 11 3 8 10 13
15 9 6 -3 15 4 21 15 6 11 15 18 19 15 5 -3 12 2 15 10 3 8 9 14 14 13 5 -2
19 8 31 22 13 14 20 18 16 10 -4 -8 1 -6 9 4 9 11 24 21 33 22 10 2 26 13 37
26 10 13 22 24 27 24 5 1 14 2 20 3 5 0 8 5 5 10 -13 20 20 4 47 -22 15 -16
31 -25 37 -22 5 3 14 -4 20 -15 6 -11 15 -18 20 -15 5 3 14 -4 20 -15 6 -11
15 -19 20 -17 5 1 16 -7 25 -18 9 -11 13 -13 9 -5 -8 16 31 -12 54 -40 7 -8
17 -15 22 -15 5 0 16 -9 25 -20 9 -11 13 -13 9 -5 -9 18 31 -13 61 -48 24 -27
65 -38 65 -16 0 8 -4 14 -10 14 -5 0 -7 7 -4 15 4 8 1 15 -5 15 -6 0 -8 7 -5
15 4 8 1 15 -6 15 -6 0 -8 5 -4 11 3 6 1 15 -6 19 -7 4 -12 19 -12 34 0 14 -5
26 -10 26 -6 0 -8 9 -5 20 3 11 -1 27 -10 35 -8 8 -11 19 -8 25 3 5 1 10 -5
10 -7 0 -10 7 -6 15 3 8 1 15 -5 15 -6 0 -9 7 -5 15 3 8 1 15 -5 15 -6 0 -8 9
-4 20 4 12 2 20 -5 20 -6 0 -8 4 -5 10 3 5 1 10 -5 10 -7 0 -9 8 -5 20 4 11 2
20 -4 20 -6 0 -8 7 -5 15 4 8 2 15 -4 15 -6 0 -7 10 -3 28 5 15 13 26 19 25 6
-2 16 6 22 17 6 11 15 18 20 15 6 -3 22 6 37 22 16 15 31 28 35 28 4 0 13 7
20 15 20 24 62 57 53 41 -5 -8 2 -7 19 4 15 10 31 26 37 37 5 10 14 16 19 13
5 -3 30 15 56 39 26 25 51 43 57 39 6 -3 7 -1 3 5 -5 9 -80 12 -261 12 -222 0
-254 2 -249 15 4 8 1 15 -5 15 -6 0 -8 7 -5 15 4 8 1 15 -5 15 -6 0 -8 7 -5
15 4 8 1 15 -6 15 -6 0 -8 5 -4 11 3 6 1 15 -6 19 -7 4 -12 19 -12 34 0 14 -5
26 -10 26 -5 0 -6 10 -3 21 5 14 4 19 -4 15 -7 -5 -9 -1 -5 8 4 9 1 16 -6 16
-7 0 -10 7 -6 15 3 8 1 15 -5 15 -6 0 -9 7 -5 15 3 8 1 15 -5 15 -6 0 -9 7 -5
15 3 8 1 15 -5 15 -6 0 -8 9 -4 20 4 12 2 20 -5 20 -6 0 -8 5 -5 10 3 6 1 10
-5 10 -7 0 -9 8 -5 20 4 11 2 20 -4 20 -6 0 -8 7 -5 15 4 8 1 15 -5 15 -6 0
-8 6 -5 14 3 8 1 17 -5 21 -6 3 -12 3 -12 -2z"/>
<path d="M5649 1663 c-1 -4 -1 -11 0 -15 0 -5 -4 -8 -10 -8 -6 0 -8 -9 -4 -20
4 -12 2 -20 -5 -20 -7 0 -9 -7 -6 -16 4 -9 2 -13 -5 -8 -8 4 -9 -1 -4 -15 4
-13 2 -21 -5 -21 -7 0 -9 -7 -6 -16 4 -9 2 -13 -5 -8 -8 4 -9 -1 -4 -15 4 -13
2 -21 -5 -21 -7 0 -9 -7 -6 -16 4 -10 2 -13 -6 -8 -7 5 -9 0 -6 -14 4 -12 2
-22 -4 -22 -6 0 -8 -7 -4 -15 3 -8 1 -15 -5 -15 -6 0 -9 -7 -5 -15 3 -8 1 -15
-5 -15 -6 0 -9 -6 -6 -14 3 -8 1 -16 -4 -18 -5 -2 -11 -16 -13 -31 -1 -15 -5
-30 -9 -33 -3 -3 -3 -12 0 -20 3 -8 0 -14 -7 -14 -6 0 -9 -4 -6 -9 4 -5 3 -16
0 -25 -5 -14 -37 -16 -259 -16 -163 0 -256 -4 -260 -10 -4 -6 -2 -9 4 -8 5 2
17 -6 26 -17 9 -11 14 -13 10 -5 -4 8 6 2 20 -15 15 -16 24 -23 20 -15 -3 8 1
6 10 -5 9 -11 19 -20 23 -20 4 0 19 -13 35 -28 15 -16 31 -25 37 -22 5 3 14
-4 20 -15 6 -11 15 -18 20 -15 5 3 14 -4 20 -15 6 -11 15 -18 19 -15 5 2 21
-8 37 -22 16 -15 32 -28 36 -28 4 0 14 -9 23 -20 9 -11 13 -13 9 -5 -6 13 -5
13 8 0 19 -18 32 -70 19 -70 -6 0 -8 -7 -5 -15 4 -8 1 -15 -6 -15 -7 0 -10 -7
-6 -16 4 -9 2 -13 -5 -8 -8 4 -9 -1 -4 -15 4 -13 2 -21 -5 -21 -7 0 -9 -7 -6
-16 4 -10 2 -13 -6 -8 -8 5 -9 2 -5 -10 4 -10 1 -24 -7 -32 -8 -7 -12 -23 -9
-34 3 -12 0 -20 -7 -20 -7 0 -10 -7 -6 -16 4 -10 2 -13 -6 -8 -7 5 -9 0 -6
-14 4 -12 2 -22 -4 -22 -6 0 -8 -7 -4 -15 3 -8 1 -15 -5 -15 -6 0 -8 -9 -4
-20 4 -12 2 -20 -5 -20 -6 0 -9 -4 -5 -9 3 -5 1 -12 -4 -16 -6 -3 -8 -12 -4
-20 3 -8 0 -15 -6 -15 -6 0 -8 -7 -5 -15 4 -9 1 -15 -7 -15 -10 0 -11 -2 0
-13 10 -10 14 -8 22 6 6 9 14 15 19 12 5 -3 14 4 20 15 6 11 15 18 19 15 5 -3
12 2 15 11 3 8 10 13 15 9 6 -3 15 4 21 15 6 11 15 18 20 15 5 -3 14 4 20 16
7 11 14 18 17 15 3 -3 14 5 25 17 11 12 17 15 13 7 -4 -8 1 -6 10 5 9 11 21
19 26 17 5 -1 12 5 15 13 3 8 10 13 15 10 4 -3 13 4 19 15 6 11 15 18 20 15 5
-3 14 4 20 15 6 11 15 19 20 17 5 -1 16 7 25 18 9 11 13 13 9 5 -5 -11 -4 -12
5 -4 10 9 19 6 37 -13 13 -13 28 -21 34 -18 5 3 14 -3 19 -13 6 -11 22 -27 37
-37 17 -11 24 -12 19 -4 -9 16 33 -17 53 -41 7 -8 16 -15 20 -15 4 0 19 -13
35 -28 15 -16 31 -25 37 -22 5 3 14 -4 20 -15 6 -11 14 -19 19 -17 5 1 17 -8
27 -21 11 -13 26 -24 34 -25 8 -2 20 -5 25 -9 6 -4 11 2 12 13 1 10 -3 19 -8
19 -6 0 -7 9 -4 21 5 14 4 19 -4 15 -7 -5 -9 -1 -5 8 4 9 1 16 -6 16 -7 0 -10
7 -6 15 3 8 1 15 -5 15 -6 0 -9 7 -5 15 3 8 1 15 -5 15 -6 0 -9 7 -5 15 3 8 1
15 -5 15 -6 0 -9 7 -6 15 4 8 2 17 -4 20 -5 4 -7 11 -4 16 4 5 1 9 -5 9 -7 0
-9 8 -5 20 4 11 2 20 -4 20 -6 0 -8 7 -5 15 4 8 1 15 -5 15 -6 0 -8 7 -5 15 4
8 1 15 -5 15 -6 0 -8 7 -5 15 4 8 1 15 -6 15 -7 0 -9 8 -5 21 5 14 4 19 -4 15
-7 -5 -9 -1 -5 8 3 9 1 16 -6 16 -7 0 -9 8 -5 21 5 14 3 19 -3 15 -6 -3 -9 2
-8 11 2 10 8 18 14 18 6 0 18 9 27 20 9 11 14 13 10 5 -4 -8 1 -6 10 5 9 11
20 19 25 18 5 -2 14 6 20 17 6 11 15 18 20 15 5 -3 14 4 20 15 6 11 15 18 19
15 5 -3 12 2 15 10 3 8 9 14 13 13 4 -1 21 10 37 25 16 15 35 27 41 27 7 0 16
7 19 16 3 8 10 13 15 9 6 -3 15 4 21 15 6 11 15 18 20 15 10 -6 60 38 60 52 0
4 -116 8 -257 8 -240 0 -258 1 -255 18 2 9 -2 17 -8 17 -7 0 -9 8 -5 21 5 14
4 19 -4 15 -7 -5 -9 -1 -5 8 3 9 1 16 -6 16 -7 0 -9 8 -5 21 5 14 4 19 -4 15
-7 -4 -9 -1 -5 7 3 8 0 18 -5 22 -6 3 -9 11 -6 16 4 5 1 9 -5 9 -7 0 -9 8 -5
20 4 12 2 20 -5 20 -6 0 -8 5 -5 10 3 6 1 10 -5 10 -7 0 -9 8 -5 20 4 11 2 20
-4 20 -6 0 -8 7 -5 15 4 8 2 15 -4 15 -6 0 -8 10 -4 22 3 14 1 19 -6 14 -8 -5
-10 -2 -6 8 3 9 1 16 -6 16 -7 0 -9 8 -5 21 5 14 4 19 -4 15 -7 -5 -9 -1 -5 8
3 9 1 16 -5 16 -6 0 -10 10 -8 21 2 20 -21 41 -24 22z"/>
<path d="M7746 1661 c-3 -5 -3 -16 0 -25 4 -9 1 -16 -6 -16 -7 0 -10 -7 -6
-16 4 -10 2 -13 -6 -8 -7 5 -9 0 -6 -14 4 -12 2 -22 -4 -22 -6 0 -8 -7 -4 -15
3 -8 1 -15 -5 -15 -6 0 -9 -7 -5 -15 3 -8 1 -15 -5 -15 -6 0 -9 -7 -5 -15 3
-8 1 -15 -5 -15 -6 0 -8 -9 -4 -20 4 -11 2 -20 -4 -20 -6 0 -8 -7 -5 -15 4 -8
1 -15 -5 -15 -6 0 -8 -7 -5 -15 4 -8 1 -15 -5 -15 -6 0 -8 -7 -5 -15 4 -8 1
-15 -6 -15 -7 0 -10 -7 -6 -16 3 -8 2 -13 -2 -10 -5 3 -9 -9 -9 -26 0 -18 -5
-34 -11 -36 -6 -2 -8 -10 -5 -18 3 -8 0 -14 -6 -14 -7 0 -11 -8 -9 -17 3 -17
-16 -18 -255 -23 -256 -5 -258 -5 -242 -25 9 -11 14 -13 10 -5 -4 8 1 6 10 -5
9 -11 20 -19 25 -18 5 2 14 -6 20 -17 6 -11 15 -18 21 -15 5 4 12 -1 15 -9 3
-9 10 -14 15 -11 4 3 13 -4 19 -15 6 -11 15 -18 20 -15 5 3 14 -4 20 -15 6
-11 15 -18 21 -15 5 4 12 -1 15 -9 3 -9 10 -14 15 -11 4 3 13 -4 19 -15 6 -11
15 -18 20 -15 5 3 14 -4 20 -15 6 -11 15 -18 19 -15 5 2 21 -8 37 -22 16 -15
32 -28 37 -28 7 0 8 -6 6 -22 -1 -5 -1 -16 0 -25 1 -10 -2 -18 -7 -18 -5 0 -9
-12 -9 -26 0 -15 -6 -30 -13 -34 -7 -4 -9 -13 -6 -19 4 -6 2 -11 -4 -11 -7 0
-9 -8 -5 -20 4 -12 2 -20 -5 -20 -6 0 -8 -4 -5 -10 3 -5 1 -10 -5 -10 -7 0 -9
-8 -5 -20 4 -12 2 -20 -5 -20 -6 0 -9 -4 -5 -9 3 -5 1 -12 -4 -16 -6 -3 -8
-12 -4 -20 3 -8 0 -15 -6 -15 -6 0 -8 -7 -5 -15 4 -8 1 -15 -6 -15 -7 0 -10
-7 -6 -16 4 -9 2 -13 -5 -8 -8 4 -9 -1 -4 -15 4 -13 2 -21 -5 -21 -7 0 -9 -7
-6 -16 4 -9 2 -13 -5 -8 -8 4 -9 -1 -4 -15 3 -12 2 -21 -4 -21 -5 0 -9 -9 -8
-19 1 -11 6 -17 12 -13 5 4 17 7 25 9 8 1 23 12 34 25 10 13 22 22 27 21 5 -2
13 6 19 17 6 11 15 18 20 15 6 -3 22 6 37 22 16 15 31 28 35 28 4 0 14 9 22
20 9 11 16 16 16 11 0 -4 9 2 21 15 11 13 17 18 14 10 -5 -9 1 -7 19 4 15 10
31 26 37 37 5 10 14 16 19 13 6 -3 21 5 34 18 18 19 27 22 37 13 9 -8 10 -7 5
4 -4 8 0 6 9 -5 9 -11 20 -20 25 -20 5 0 16 -9 25 -20 9 -11 14 -13 10 -5 -4
8 6 2 20 -15 15 -16 24 -23 20 -15 -3 8 1 6 10 -5 9 -11 20 -20 25 -20 5 0 16
-9 25 -20 9 -11 14 -13 10 -5 -4 8 3 4 14 -9 12 -13 21 -19 21 -15 0 5 7 0 16
-11 8 -11 19 -20 24 -20 5 0 16 -9 25 -20 9 -11 14 -13 10 -5 -4 8 2 5 13 -7
11 -12 22 -20 25 -17 3 3 10 -4 17 -15 6 -12 15 -19 20 -16 5 3 13 -2 18 -11
5 -10 15 -14 21 -10 8 6 9 12 2 20 -6 7 -8 16 -4 19 3 4 1 7 -6 7 -8 0 -10 7
-6 20 4 12 2 20 -5 20 -6 0 -8 5 -5 10 3 6 1 10 -5 10 -7 0 -9 8 -5 20 4 11 2
20 -4 20 -6 0 -8 7 -5 15 4 8 2 15 -4 15 -6 0 -8 10 -4 22 3 14 1 19 -6 14 -8
-5 -10 -2 -6 8 3 9 1 16 -6 16 -7 0 -9 8 -5 21 5 14 4 19 -4 15 -7 -5 -9 -1
-5 8 3 9 1 16 -6 16 -7 0 -9 8 -5 21 5 14 4 19 -4 15 -7 -5 -9 -1 -5 8 3 9 1
16 -6 16 -7 0 -9 8 -5 21 5 14 4 19 -4 15 -7 -4 -9 -1 -5 7 3 8 1 18 -5 21 -6
4 -8 13 -4 21 3 8 0 15 -6 15 -18 0 -13 26 10 51 11 13 18 17 14 9 -4 -8 1 -6
10 5 9 11 20 20 25 20 5 0 16 9 25 20 9 11 14 13 10 5 -4 -8 1 -6 10 5 9 11
20 20 26 20 5 0 14 7 19 15 5 8 14 16 20 16 5 1 15 2 20 3 6 0 9 6 8 12 -2 6
6 13 17 15 11 1 28 13 38 26 10 12 26 23 35 24 9 2 29 18 45 36 16 18 26 27
22 19 -5 -9 1 -8 19 4 14 9 23 21 20 26 -3 5 -119 9 -259 9 -215 0 -254 2
-259 15 -3 8 -3 22 0 30 4 8 1 15 -5 15 -6 0 -8 7 -5 15 4 8 1 15 -5 15 -6 0
-8 7 -5 15 4 8 1 15 -5 15 -6 0 -8 7 -5 15 4 8 1 15 -5 15 -6 0 -8 7 -5 15 4
8 1 15 -6 15 -7 0 -10 8 -7 20 3 11 -1 27 -9 34 -8 8 -11 22 -7 32 4 12 3 15
-5 10 -8 -5 -10 -2 -6 8 3 9 1 16 -6 16 -7 0 -9 8 -5 21 5 14 4 19 -4 15 -7
-5 -9 -1 -5 8 3 9 1 16 -6 16 -7 0 -9 8 -5 21 5 14 4 19 -4 15 -7 -4 -9 -1 -5
7 3 8 1 18 -5 21 -6 4 -8 13 -4 21 3 8 0 15 -6 15 -6 0 -10 5 -8 11 3 15 -19
23 -27 10z"/>
<path d="M9854 1655 c3 -8 1 -15 -5 -15 -6 0 -9 -7 -5 -15 3 -8 1 -15 -5 -15
-6 0 -8 -9 -4 -20 4 -12 2 -20 -5 -20 -6 0 -9 -4 -5 -9 3 -5 1 -12 -4 -16 -6
-3 -8 -12 -4 -20 3 -8 0 -15 -6 -15 -6 0 -8 -7 -5 -15 4 -8 1 -15 -6 -15 -7 0
-10 -7 -6 -16 4 -9 2 -13 -5 -8 -8 4 -9 -1 -4 -15 4 -13 2 -21 -5 -21 -7 0 -9
-7 -6 -16 4 -9 2 -13 -5 -8 -8 4 -9 -1 -4 -15 4 -13 2 -21 -5 -21 -7 0 -9 -7
-6 -16 4 -10 2 -13 -6 -8 -7 5 -9 0 -6 -14 4 -12 2 -22 -4 -22 -6 0 -8 -7 -4
-15 3 -8 1 -15 -5 -15 -6 0 -8 -9 -4 -21 5 -16 4 -19 -6 -14 -9 6 -11 3 -6 -8
4 -10 2 -17 -4 -17 -6 0 -8 -7 -5 -15 5 -14 -25 -16 -251 -15 -150 1 -259 -3
-261 -8 -1 -5 9 -17 24 -27 18 -11 24 -13 20 -4 -4 8 5 1 19 -16 15 -16 24
-23 19 -15 -9 18 32 -14 61 -48 11 -13 29 -25 40 -26 11 -2 19 -9 17 -15 -2
-10 11 -15 30 -12 4 0 12 -8 18 -19 6 -11 15 -18 19 -15 5 2 21 -8 37 -22 16
-15 32 -28 36 -28 4 0 14 -9 23 -20 9 -11 13 -13 9 -5 -6 13 -5 13 8 0 20 -19
32 -70 18 -70 -6 0 -9 -4 -5 -9 3 -5 1 -12 -4 -16 -6 -3 -8 -12 -4 -20 3 -8 0
-15 -6 -15 -6 0 -8 -7 -5 -15 4 -8 1 -15 -5 -15 -6 0 -8 -7 -5 -15 4 -8 1 -15
-5 -15 -6 0 -8 -7 -5 -15 4 -8 1 -15 -6 -15 -7 0 -10 -7 -6 -16 4 -10 2 -13
-6 -8 -8 5 -9 2 -5 -10 4 -10 1 -24 -7 -32 -8 -7 -12 -23 -9 -34 3 -11 1 -20
-5 -20 -5 0 -9 -12 -9 -26 0 -15 -6 -30 -13 -34 -7 -4 -9 -13 -6 -19 4 -6 2
-11 -4 -11 -7 0 -10 -7 -6 -15 3 -8 1 -15 -5 -15 -6 0 -9 -7 -5 -15 3 -8 1
-15 -4 -15 -6 0 -10 -7 -10 -15 0 -13 4 -14 23 -3 12 7 26 12 30 13 4 0 12 7
17 15 5 8 14 15 19 15 6 0 17 9 26 20 9 11 14 13 10 5 -4 -8 1 -6 10 5 9 11
20 19 25 18 5 -2 14 6 20 17 6 11 15 18 20 15 6 -3 22 6 37 22 16 15 31 28 35
28 4 0 14 9 22 20 9 11 16 16 16 11 0 -4 9 2 21 15 11 13 18 17 14 9 -4 -8 1
-6 10 5 9 11 20 20 26 20 5 0 14 6 19 14 4 8 16 16 24 17 9 1 14 -2 10 -7 -3
-5 0 -10 5 -10 6 -1 15 -2 21 -3 5 0 16 -10 25 -21 9 -11 14 -13 10 -5 -4 8 1
6 10 -5 9 -11 20 -20 25 -20 5 0 16 -9 25 -20 9 -11 14 -13 10 -5 -4 8 3 4 14
-9 12 -13 21 -19 21 -15 0 5 7 0 16 -11 8 -11 19 -20 24 -20 5 0 16 -9 25 -20
9 -11 14 -13 10 -5 -4 8 2 5 13 -7 11 -12 22 -20 25 -17 3 3 10 -4 17 -15 6
-12 15 -19 20 -16 5 3 14 -4 20 -15 6 -11 14 -19 18 -18 4 1 17 -3 29 -10 17
-9 23 -9 29 0 4 6 3 13 -3 15 -6 2 -8 13 -5 25 3 14 1 19 -6 14 -8 -5 -10 -2
-6 8 3 9 1 16 -6 16 -7 0 -9 8 -5 21 5 14 4 19 -4 15 -7 -5 -9 -1 -5 8 4 9 1
16 -6 16 -7 0 -10 6 -7 14 3 8 1 16 -5 18 -6 2 -11 18 -11 36 0 17 -4 29 -9
26 -4 -3 -5 1 -2 9 3 8 0 18 -5 22 -6 3 -9 11 -6 16 4 5 1 9 -5 9 -7 0 -9 8
-5 20 4 12 2 20 -5 20 -6 0 -9 4 -5 9 3 5 1 12 -4 16 -6 3 -8 12 -4 20 3 8 0
15 -6 15 -6 0 -8 7 -5 15 4 8 2 15 -4 15 -6 0 -8 10 -4 22 3 13 1 19 -6 15 -6
-4 -9 0 -7 10 1 10 8 17 14 16 6 -2 15 6 21 17 6 11 15 18 20 15 6 -3 22 6 37
22 16 15 31 27 35 25 4 -1 12 7 18 18 6 11 15 18 20 15 6 -3 22 6 37 22 16 15
31 27 35 25 4 -1 12 7 18 18 6 11 15 18 20 15 6 -3 22 6 37 22 16 15 31 28 35
28 4 0 14 9 23 20 9 11 14 13 10 5 -4 -8 1 -6 10 5 16 20 14 20 -242 25 -215
4 -257 7 -255 19 2 8 -2 17 -9 21 -6 4 -11 19 -11 34 0 14 -5 26 -10 26 -5 0
-6 10 -3 21 5 14 4 19 -4 15 -7 -5 -9 -1 -5 8 3 9 1 16 -6 16 -7 0 -9 8 -5 21
5 14 4 19 -4 15 -7 -5 -9 -1 -5 8 4 9 1 16 -6 16 -7 0 -10 7 -7 15 4 8 2 17
-4 20 -5 4 -7 11 -4 16 4 5 1 9 -5 9 -7 0 -9 8 -5 20 4 11 2 20 -4 20 -6 0 -8
7 -5 15 4 8 1 15 -5 15 -6 0 -8 7 -5 15 4 8 1 15 -5 15 -6 0 -8 7 -5 15 4 8 1
15 -5 15 -6 0 -8 7 -5 15 4 8 1 15 -6 15 -6 0 -8 5 -5 10 3 6 0 17 -9 25 -19
19 -30 19 -22 0z"/>
<path d="M11969 1657 c-9 -7 -14 -18 -12 -24 3 -7 -1 -13 -7 -13 -7 0 -10 -7
-6 -16 4 -10 2 -13 -6 -8 -8 5 -9 2 -5 -10 4 -10 1 -24 -7 -32 -8 -7 -12 -23
-9 -34 3 -12 0 -20 -7 -20 -7 0 -10 -7 -6 -15 3 -8 1 -15 -5 -15 -6 0 -9 -7
-5 -15 3 -8 1 -15 -5 -15 -6 0 -9 -7 -5 -15 3 -8 1 -15 -5 -15 -6 0 -9 -7 -5
-15 3 -8 1 -15 -5 -15 -6 0 -9 -7 -6 -15 4 -8 2 -17 -3 -20 -5 -3 -7 -12 -3
-20 3 -8 0 -15 -7 -15 -6 0 -9 -4 -5 -9 3 -5 1 -12 -4 -16 -6 -3 -8 -12 -4
-20 3 -8 0 -15 -6 -15 -6 0 -8 -7 -5 -15 4 -8 1 -15 -5 -15 -7 0 -11 -8 -9
-17 3 -17 -15 -18 -255 -18 -141 0 -257 -4 -257 -8 0 -14 50 -58 60 -52 5 3
14 -4 20 -15 6 -11 15 -18 20 -15 5 3 14 -4 20 -15 6 -11 15 -18 19 -15 5 2
21 -8 37 -22 16 -15 32 -28 36 -28 4 0 14 -9 23 -20 9 -11 13 -13 9 -5 -8 16
31 -12 54 -40 7 -8 17 -15 21 -15 5 0 17 -10 27 -23 11 -13 28 -24 39 -26 21
-3 35 -36 15 -36 -6 0 -8 -5 -5 -10 3 -6 0 -17 -8 -25 -9 -8 -13 -24 -10 -35
3 -12 0 -20 -7 -20 -7 0 -10 -7 -6 -15 3 -8 1 -15 -5 -15 -6 0 -9 -7 -5 -15 3
-8 1 -15 -5 -15 -6 0 -9 -7 -5 -15 3 -8 1 -15 -5 -15 -6 0 -8 -9 -4 -20 4 -12
2 -20 -5 -20 -6 0 -8 -4 -5 -10 3 -5 1 -10 -5 -10 -7 0 -9 -8 -5 -20 4 -12 2
-20 -5 -20 -6 0 -9 -4 -5 -9 3 -5 1 -12 -4 -16 -6 -3 -8 -12 -4 -20 3 -8 0
-15 -6 -15 -6 0 -8 -7 -5 -15 4 -8 1 -15 -5 -15 -6 0 -8 -7 -5 -15 4 -8 1 -15
-6 -15 -7 0 -10 -7 -6 -16 3 -8 2 -12 -4 -9 -6 3 -10 -1 -10 -9 0 -25 16 -27
46 -4 16 13 25 16 20 8 -4 -8 0 -6 9 5 9 11 20 19 25 18 5 -2 14 6 20 17 6 11
15 18 20 15 6 -3 22 6 37 22 16 15 31 28 35 28 4 0 13 7 20 15 20 24 62 57 53
41 -5 -8 2 -7 19 4 15 10 31 26 37 37 5 10 14 16 19 13 6 -3 21 5 34 18 18 19
27 22 37 13 9 -8 10 -8 4 3 -4 7 6 3 23 -9 17 -13 33 -29 36 -37 3 -8 10 -12
15 -8 6 3 15 -4 21 -15 6 -11 15 -18 19 -15 5 3 12 -2 15 -11 3 -8 10 -13 15
-9 6 3 15 -4 21 -15 6 -11 14 -19 18 -18 4 2 19 -10 35 -25 15 -16 31 -25 37
-22 5 3 14 -4 20 -15 6 -11 15 -19 20 -17 5 1 16 -7 25 -18 9 -11 14 -13 10
-5 -4 8 1 6 10 -5 9 -11 20 -20 26 -20 5 0 14 -7 19 -15 7 -12 12 -12 22 -2 9
9 9 12 -1 12 -8 0 -10 7 -6 21 5 14 4 19 -4 15 -7 -5 -9 -1 -5 8 4 9 1 16 -6
16 -7 0 -10 7 -6 15 3 8 1 15 -5 15 -6 0 -9 7 -5 15 3 8 1 15 -5 15 -6 0 -8 9
-4 20 4 11 2 20 -4 20 -6 0 -8 7 -5 15 4 8 1 15 -5 15 -6 0 -8 7 -5 15 4 8 1
15 -5 15 -6 0 -8 7 -5 15 4 8 1 15 -5 15 -6 0 -8 7 -5 15 4 8 1 15 -6 15 -7 0
-10 8 -7 20 3 11 -1 27 -9 34 -8 8 -11 22 -7 32 4 12 3 15 -5 10 -8 -5 -10 -2
-6 8 4 9 1 16 -6 16 -7 0 -10 7 -7 15 4 8 2 17 -3 20 -5 3 -6 13 -3 22 4 11 3
14 -5 9 -24 -14 -11 9 15 28 17 13 24 14 19 5 -4 -8 0 -5 9 6 9 11 20 20 25
20 5 0 15 7 22 15 23 28 62 56 54 40 -4 -8 0 -6 9 5 9 11 20 19 25 18 5 -2 14
6 20 17 6 11 15 18 20 15 6 -3 22 6 37 22 16 15 31 28 35 28 4 0 14 9 22 20 9
11 16 16 16 11 0 -4 9 2 21 15 11 13 18 17 14 9 -4 -8 1 -6 10 5 9 11 21 19
26 17 6 -1 8 2 4 8 -4 6 -97 10 -260 10 -222 0 -254 2 -259 16 -3 9 -4 20 -1
24 3 5 1 11 -5 15 -6 4 -8 11 -5 16 4 5 1 9 -5 9 -7 0 -10 7 -7 15 4 8 2 17
-3 20 -5 3 -7 12 -3 20 3 8 0 15 -6 15 -6 0 -8 7 -5 15 4 8 1 15 -5 15 -6 0
-8 7 -5 15 4 8 1 15 -5 15 -6 0 -8 7 -5 15 4 8 1 15 -5 15 -6 0 -8 7 -5 15 4
8 1 15 -5 15 -6 0 -8 7 -5 15 4 8 1 15 -6 15 -6 0 -8 5 -4 11 3 6 1 15 -6 19
-6 4 -13 19 -13 34 -1 14 -6 26 -11 26 -4 0 -6 7 -2 15 3 8 1 15 -5 15 -6 0
-9 7 -6 15 4 8 2 17 -3 20 -5 3 -7 12 -3 20 6 18 3 18 -18 2z"/>
</g>
</svg>
